<svg width="547" height="48" viewBox="0 0 547 48" fill="none" xmlns="http://www.w3.org/2000/svg">
<path d="M183 0H0V48H183V0Z" fill="#006699"/>
<path d="M8.70188 40C8.34988 40 8.07788 39.904 7.88588 39.712C7.69388 39.488 7.59788 39.216 7.59788 38.896V7.552C7.59788 7.2 7.69388 6.928 7.88588 6.736C8.07788 6.512 8.34988 6.4 8.70188 6.4H20.8939C23.2619 6.4 25.3099 6.784 27.0379 7.552C28.7979 8.32 30.1579 9.472 31.1179 11.008C32.0779 12.512 32.5579 14.4 32.5579 16.672C32.5579 18.944 32.0779 20.832 31.1179 22.336C30.1579 23.84 28.7979 24.976 27.0379 25.744C25.3099 26.512 23.2619 26.896 20.8939 26.896H12.3979V38.896C12.3979 39.216 12.2859 39.488 12.0619 39.712C11.8699 39.904 11.5979 40 11.2459 40H8.70188ZM12.3499 22.864H20.6539C23.0219 22.864 24.7979 22.336 25.9819 21.28C27.1659 20.224 27.7579 18.688 27.7579 16.672C27.7579 14.688 27.1819 13.152 26.0299 12.064C24.8779 10.976 23.0859 10.432 20.6539 10.432H12.3499V22.864ZM38.8748 40C38.5548 40 38.2828 39.904 38.0588 39.712C37.8668 39.488 37.7708 39.216 37.7708 38.896V16.192C37.7708 15.872 37.8668 15.6 38.0588 15.376C38.2828 15.152 38.5548 15.04 38.8748 15.04H41.0828C41.4028 15.04 41.6748 15.152 41.8988 15.376C42.1228 15.6 42.2348 15.872 42.2348 16.192V18.304C42.8748 17.216 43.7548 16.4 44.8748 15.856C45.9948 15.312 47.3388 15.04 48.9068 15.04H50.8268C51.1468 15.04 51.4028 15.152 51.5948 15.376C51.7868 15.568 51.8828 15.824 51.8828 16.144V18.112C51.8828 18.432 51.7868 18.688 51.5948 18.88C51.4028 19.072 51.1468 19.168 50.8268 19.168H47.9468C46.2188 19.168 44.8588 19.68 43.8668 20.704C42.8748 21.696 42.3788 23.056 42.3788 24.784V38.896C42.3788 39.216 42.2668 39.488 42.0428 39.712C41.8188 39.904 41.5468 40 41.2268 40H38.8748ZM65.7604 40.48C63.3284 40.48 61.2964 40.016 59.6644 39.088C58.0324 38.16 56.7844 36.88 55.9204 35.248C55.0564 33.584 54.5764 31.696 54.4804 29.584C54.4484 29.04 54.4324 28.352 54.4324 27.52C54.4324 26.656 54.4484 25.968 54.4804 25.456C54.5764 23.312 55.0564 21.424 55.9204 19.792C56.8164 18.16 58.0804 16.88 59.7124 15.952C61.3444 15.024 63.3604 14.56 65.7604 14.56C68.1604 14.56 70.1764 15.024 71.8084 15.952C73.4404 16.88 74.6884 18.16 75.5524 19.792C76.4484 21.424 76.9444 23.312 77.0404 25.456C77.0724 25.968 77.0884 26.656 77.0884 27.52C77.0884 28.352 77.0724 29.04 77.0404 29.584C76.9444 31.696 76.4644 33.584 75.6004 35.248C74.7364 36.88 73.4884 38.16 71.8564 39.088C70.2244 40.016 68.1924 40.48 65.7604 40.48ZM65.7604 36.784C67.7444 36.784 69.3284 36.16 70.5124 34.912C71.6964 33.632 72.3364 31.776 72.4324 29.344C72.4644 28.864 72.4804 28.256 72.4804 27.52C72.4804 26.784 72.4644 26.176 72.4324 25.696C72.3364 23.264 71.6964 21.424 70.5124 20.176C69.3284 18.896 67.7444 18.256 65.7604 18.256C63.7764 18.256 62.1764 18.896 60.9604 20.176C59.7764 21.424 59.1524 23.264 59.0884 25.696C59.0564 26.176 59.0404 26.784 59.0404 27.52C59.0404 28.256 59.0564 28.864 59.0884 29.344C59.1524 31.776 59.7764 33.632 60.9604 34.912C62.1764 36.16 63.7764 36.784 65.7604 36.784ZM92.2189 40.48C90.4589 40.48 88.9389 40.176 87.6589 39.568C86.3789 38.928 85.3229 38.08 84.4909 37.024C83.6909 35.936 83.0829 34.704 82.6669 33.328C82.2829 31.952 82.0589 30.496 81.9949 28.96C81.9629 28.448 81.9469 27.968 81.9469 27.52C81.9469 27.072 81.9629 26.592 81.9949 26.08C82.0589 24.576 82.2829 23.136 82.6669 21.76C83.0829 20.384 83.6909 19.152 84.4909 18.064C85.3229 16.976 86.3789 16.128 87.6589 15.52C88.9389 14.88 90.4589 14.56 92.2189 14.56C94.1069 14.56 95.6749 14.896 96.9229 15.568C98.1709 16.24 99.1949 17.072 99.9949 18.064V7.024C99.9949 6.704 100.091 6.448 100.283 6.256C100.507 6.032 100.779 5.92 101.099 5.92H103.403C103.723 5.92 103.979 6.032 104.171 6.256C104.395 6.448 104.507 6.704 104.507 7.024V38.896C104.507 39.216 104.395 39.488 104.171 39.712C103.979 39.904 103.723 40 103.403 40H101.243C100.891 40 100.619 39.904 100.427 39.712C100.235 39.488 100.139 39.216 100.139 38.896V36.88C99.3389 37.904 98.2989 38.768 97.0189 39.472C95.7389 40.144 94.1389 40.48 92.2189 40.48ZM93.2269 36.592C94.8269 36.592 96.1069 36.224 97.0669 35.488C98.0269 34.752 98.7469 33.824 99.2269 32.704C99.7069 31.552 99.9629 30.384 99.9949 29.2C100.027 28.688 100.043 28.08 100.043 27.376C100.043 26.64 100.027 26.016 99.9949 25.504C99.9629 24.384 99.6909 23.28 99.1789 22.192C98.6989 21.104 97.9629 20.208 96.9709 19.504C96.0109 18.8 94.7629 18.448 93.2269 18.448C91.5949 18.448 90.2989 18.816 89.3389 19.552C88.3789 20.256 87.6909 21.2 87.2749 22.384C86.8589 23.536 86.6189 24.784 86.5549 26.128C86.5229 27.056 86.5229 27.984 86.5549 28.912C86.6189 30.256 86.8589 31.52 87.2749 32.704C87.6909 33.856 88.3789 34.8 89.3389 35.536C90.2989 36.24 91.5949 36.592 93.2269 36.592ZM118.606 40.48C117.006 40.48 115.55 40.16 114.238 39.52C112.926 38.88 111.87 38.016 111.07 36.928C110.27 35.84 109.87 34.608 109.87 33.232C109.87 31.024 110.766 29.264 112.558 27.952C114.35 26.64 116.686 25.776 119.566 25.36L126.718 24.352V22.96C126.718 21.424 126.27 20.224 125.374 19.36C124.51 18.496 123.086 18.064 121.102 18.064C119.662 18.064 118.494 18.352 117.598 18.928C116.734 19.504 116.126 20.24 115.774 21.136C115.582 21.616 115.246 21.856 114.766 21.856H112.606C112.254 21.856 111.982 21.76 111.79 21.568C111.63 21.344 111.55 21.088 111.55 20.8C111.55 20.32 111.726 19.728 112.078 19.024C112.462 18.32 113.038 17.632 113.806 16.96C114.574 16.288 115.55 15.728 116.734 15.28C117.95 14.8 119.422 14.56 121.15 14.56C123.07 14.56 124.686 14.816 125.998 15.328C127.31 15.808 128.334 16.464 129.07 17.296C129.838 18.128 130.382 19.072 130.702 20.128C131.054 21.184 131.23 22.256 131.23 23.344V38.896C131.23 39.216 131.118 39.488 130.894 39.712C130.702 39.904 130.446 40 130.126 40H127.918C127.566 40 127.294 39.904 127.102 39.712C126.91 39.488 126.814 39.216 126.814 38.896V36.832C126.398 37.408 125.838 37.984 125.134 38.56C124.43 39.104 123.55 39.568 122.494 39.952C121.438 40.304 120.142 40.48 118.606 40.48ZM119.614 36.88C120.926 36.88 122.126 36.608 123.214 36.064C124.302 35.488 125.15 34.608 125.758 33.424C126.398 32.24 126.718 30.752 126.718 28.96V27.616L121.15 28.432C118.878 28.752 117.166 29.296 116.014 30.064C114.862 30.8 114.286 31.744 114.286 32.896C114.286 33.792 114.542 34.544 115.054 35.152C115.598 35.728 116.27 36.16 117.07 36.448C117.902 36.736 118.75 36.88 119.614 36.88ZM147.64 40C145.848 40 144.392 39.664 143.272 38.992C142.152 38.288 141.336 37.312 140.824 36.064C140.312 34.784 140.056 33.28 140.056 31.552V18.88H136.312C135.992 18.88 135.72 18.784 135.496 18.592C135.304 18.368 135.208 18.096 135.208 17.776V16.144C135.208 15.824 135.304 15.568 135.496 15.376C135.72 15.152 135.992 15.04 136.312 15.04H140.056V7.024C140.056 6.704 140.152 6.448 140.344 6.256C140.568 6.032 140.84 5.92 141.16 5.92H143.416C143.736 5.92 143.992 6.032 144.184 6.256C144.408 6.448 144.52 6.704 144.52 7.024V15.04H150.472C150.792 15.04 151.048 15.152 151.24 15.376C151.464 15.568 151.576 15.824 151.576 16.144V17.776C151.576 18.096 151.464 18.368 151.24 18.592C151.048 18.784 150.792 18.88 150.472 18.88H144.52V31.216C144.52 32.72 144.776 33.904 145.288 34.768C145.8 35.632 146.712 36.064 148.024 36.064H150.952C151.272 36.064 151.528 36.176 151.72 36.4C151.944 36.592 152.056 36.848 152.056 37.168V38.896C152.056 39.216 151.944 39.488 151.72 39.712C151.528 39.904 151.272 40 150.952 40H147.64ZM163.606 40.48C162.006 40.48 160.55 40.16 159.238 39.52C157.926 38.88 156.87 38.016 156.07 36.928C155.27 35.84 154.87 34.608 154.87 33.232C154.87 31.024 155.766 29.264 157.558 27.952C159.35 26.64 161.686 25.776 164.566 25.36L171.718 24.352V22.96C171.718 21.424 171.27 20.224 170.374 19.36C169.51 18.496 168.086 18.064 166.102 18.064C164.662 18.064 163.494 18.352 162.598 18.928C161.734 19.504 161.126 20.24 160.774 21.136C160.582 21.616 160.246 21.856 159.766 21.856H157.606C157.254 21.856 156.982 21.76 156.79 21.568C156.63 21.344 156.55 21.088 156.55 20.8C156.55 20.32 156.726 19.728 157.078 19.024C157.462 18.32 158.038 17.632 158.806 16.96C159.574 16.288 160.55 15.728 161.734 15.28C162.95 14.8 164.422 14.56 166.15 14.56C168.07 14.56 169.686 14.816 170.998 15.328C172.31 15.808 173.334 16.464 174.07 17.296C174.838 18.128 175.382 19.072 175.702 20.128C176.054 21.184 176.23 22.256 176.23 23.344V38.896C176.23 39.216 176.118 39.488 175.894 39.712C175.702 39.904 175.446 40 175.126 40H172.918C172.566 40 172.294 39.904 172.102 39.712C171.91 39.488 171.814 39.216 171.814 38.896V36.832C171.398 37.408 170.838 37.984 170.134 38.56C169.43 39.104 168.55 39.568 167.494 39.952C166.438 40.304 165.142 40.48 163.606 40.48ZM164.614 36.88C165.926 36.88 167.126 36.608 168.214 36.064C169.302 35.488 170.15 34.608 170.758 33.424C171.398 32.24 171.718 30.752 171.718 28.96V27.616L166.15 28.432C163.878 28.752 162.166 29.296 161.014 30.064C159.862 30.8 159.286 31.744 159.286 32.896C159.286 33.792 159.542 34.544 160.054 35.152C160.598 35.728 161.27 36.16 162.07 36.448C162.902 36.736 163.75 36.88 164.614 36.88Z" fill="#F5F5F5"/>
<path d="M193.704 23C193.557 23 193.444 22.96 193.364 22.88C193.284 22.7867 193.244 22.6733 193.244 22.54V9.48C193.244 9.33333 193.284 9.22 193.364 9.14C193.444 9.04667 193.557 9 193.704 9H194.724C194.871 9 194.984 9.04667 195.064 9.14C195.157 9.22 195.204 9.33333 195.204 9.48V15H202.084V9.48C202.084 9.33333 202.124 9.22 202.204 9.14C202.297 9.04667 202.411 9 202.544 9H203.564C203.711 9 203.824 9.04667 203.904 9.14C203.997 9.22 204.044 9.33333 204.044 9.48V22.54C204.044 22.6733 203.997 22.7867 203.904 22.88C203.824 22.96 203.711 23 203.564 23H202.544C202.411 23 202.297 22.96 202.204 22.88C202.124 22.7867 202.084 22.6733 202.084 22.54V16.8H195.204V22.54C195.204 22.6733 195.157 22.7867 195.064 22.88C194.984 22.96 194.871 23 194.724 23H193.704ZM211.382 23.2C210.008 23.2 208.915 22.78 208.102 21.94C207.288 21.0867 206.842 19.9267 206.762 18.46C206.748 18.2867 206.742 18.0667 206.742 17.8C206.742 17.52 206.748 17.2933 206.762 17.12C206.815 16.1733 207.035 15.3467 207.422 14.64C207.808 13.92 208.335 13.3667 209.002 12.98C209.682 12.5933 210.475 12.4 211.382 12.4C212.395 12.4 213.242 12.6133 213.922 13.04C214.615 13.4667 215.142 14.0733 215.502 14.86C215.862 15.6467 216.042 16.5667 216.042 17.62V17.96C216.042 18.1067 215.995 18.22 215.902 18.3C215.822 18.38 215.715 18.42 215.582 18.42H208.662C208.662 18.4333 208.662 18.46 208.662 18.5C208.662 18.54 208.662 18.5733 208.662 18.6C208.688 19.1467 208.808 19.66 209.022 20.14C209.235 20.6067 209.542 20.9867 209.942 21.28C210.342 21.5733 210.822 21.72 211.382 21.72C211.862 21.72 212.262 21.6467 212.582 21.5C212.902 21.3533 213.162 21.1933 213.362 21.02C213.562 20.8333 213.695 20.6933 213.762 20.6C213.882 20.4267 213.975 20.3267 214.042 20.3C214.108 20.26 214.215 20.24 214.362 20.24H215.322C215.455 20.24 215.562 20.28 215.642 20.36C215.735 20.4267 215.775 20.5267 215.762 20.66C215.748 20.86 215.642 21.1067 215.442 21.4C215.242 21.68 214.955 21.96 214.582 22.24C214.208 22.52 213.755 22.7533 213.222 22.94C212.688 23.1133 212.075 23.2 211.382 23.2ZM208.662 17.04H214.142V16.98C214.142 16.38 214.028 15.8467 213.802 15.38C213.588 14.9133 213.275 14.5467 212.862 14.28C212.448 14 211.955 13.86 211.382 13.86C210.808 13.86 210.315 14 209.902 14.28C209.502 14.5467 209.195 14.9133 208.982 15.38C208.768 15.8467 208.662 16.38 208.662 16.98V17.04ZM218.893 23C218.76 23 218.646 22.96 218.553 22.88C218.473 22.7867 218.433 22.6733 218.433 22.54V13.08C218.433 12.9467 218.473 12.8333 218.553 12.74C218.646 12.6467 218.76 12.6 218.893 12.6H219.813C219.946 12.6 220.06 12.6467 220.153 12.74C220.246 12.8333 220.293 12.9467 220.293 13.08V13.96C220.56 13.5067 220.926 13.1667 221.393 12.94C221.86 12.7133 222.42 12.6 223.073 12.6H223.873C224.006 12.6 224.113 12.6467 224.193 12.74C224.273 12.82 224.313 12.9267 224.313 13.06V13.88C224.313 14.0133 224.273 14.12 224.193 14.2C224.113 14.28 224.006 14.32 223.873 14.32H222.673C221.953 14.32 221.386 14.5333 220.973 14.96C220.56 15.3733 220.353 15.94 220.353 16.66V22.54C220.353 22.6733 220.306 22.7867 220.213 22.88C220.12 22.96 220.006 23 219.873 23H218.893ZM226.491 23C226.357 23 226.244 22.96 226.151 22.88C226.071 22.7867 226.031 22.6733 226.031 22.54V13.08C226.031 12.9467 226.071 12.8333 226.151 12.74C226.244 12.6467 226.357 12.6 226.491 12.6H227.411C227.544 12.6 227.657 12.6467 227.751 12.74C227.844 12.8333 227.891 12.9467 227.891 13.08V13.96C228.157 13.5067 228.524 13.1667 228.991 12.94C229.457 12.7133 230.017 12.6 230.671 12.6H231.471C231.604 12.6 231.711 12.6467 231.791 12.74C231.871 12.82 231.911 12.9267 231.911 13.06V13.88C231.911 14.0133 231.871 14.12 231.791 14.2C231.711 14.28 231.604 14.32 231.471 14.32H230.271C229.551 14.32 228.984 14.5333 228.571 14.96C228.157 15.3733 227.951 15.94 227.951 16.66V22.54C227.951 22.6733 227.904 22.7867 227.811 22.88C227.717 22.96 227.604 23 227.471 23H226.491ZM236.372 23.2C235.706 23.2 235.099 23.0667 234.552 22.8C234.006 22.5333 233.566 22.1733 233.232 21.72C232.899 21.2667 232.732 20.7533 232.732 20.18C232.732 19.26 233.106 18.5267 233.852 17.98C234.599 17.4333 235.572 17.0733 236.772 16.9L239.752 16.48V15.9C239.752 15.26 239.566 14.76 239.192 14.4C238.832 14.04 238.239 13.86 237.412 13.86C236.812 13.86 236.326 13.98 235.952 14.22C235.592 14.46 235.339 14.7667 235.192 15.14C235.112 15.34 234.972 15.44 234.772 15.44H233.872C233.726 15.44 233.612 15.4 233.532 15.32C233.466 15.2267 233.432 15.12 233.432 15C233.432 14.8 233.506 14.5533 233.652 14.26C233.812 13.9667 234.052 13.68 234.372 13.4C234.692 13.12 235.099 12.8867 235.592 12.7C236.099 12.5 236.712 12.4 237.432 12.4C238.232 12.4 238.906 12.5067 239.452 12.72C239.999 12.92 240.426 13.1933 240.732 13.54C241.052 13.8867 241.279 14.28 241.412 14.72C241.559 15.16 241.632 15.6067 241.632 16.06V22.54C241.632 22.6733 241.586 22.7867 241.492 22.88C241.412 22.96 241.306 23 241.172 23H240.252C240.106 23 239.992 22.96 239.912 22.88C239.832 22.7867 239.792 22.6733 239.792 22.54V21.68C239.619 21.92 239.386 22.16 239.092 22.4C238.799 22.6267 238.432 22.82 237.992 22.98C237.552 23.1267 237.012 23.2 236.372 23.2ZM236.792 21.7C237.339 21.7 237.839 21.5867 238.292 21.36C238.746 21.12 239.099 20.7533 239.352 20.26C239.619 19.7667 239.752 19.1467 239.752 18.4V17.84L237.432 18.18C236.486 18.3133 235.772 18.54 235.292 18.86C234.812 19.1667 234.572 19.56 234.572 20.04C234.572 20.4133 234.679 20.7267 234.892 20.98C235.119 21.22 235.399 21.4 235.732 21.52C236.079 21.64 236.432 21.7 236.792 21.7ZM244.967 23C244.834 23 244.721 22.96 244.627 22.88C244.547 22.7867 244.507 22.6733 244.507 22.54V13.06C244.507 12.9267 244.547 12.82 244.627 12.74C244.721 12.6467 244.834 12.6 244.967 12.6H245.867C246.001 12.6 246.107 12.6467 246.187 12.74C246.281 12.82 246.327 12.9267 246.327 13.06V13.76C246.634 13.3467 247.021 13.02 247.487 12.78C247.954 12.5267 248.514 12.4 249.167 12.4C250.674 12.3867 251.741 13 252.367 14.24C252.674 13.68 253.121 13.2333 253.707 12.9C254.294 12.5667 254.961 12.4 255.707 12.4C256.401 12.4 257.027 12.56 257.587 12.88C258.161 13.2 258.607 13.6867 258.927 14.34C259.261 14.98 259.427 15.7867 259.427 16.76V22.54C259.427 22.6733 259.381 22.7867 259.287 22.88C259.207 22.96 259.101 23 258.967 23H258.027C257.894 23 257.781 22.96 257.687 22.88C257.607 22.7867 257.567 22.6733 257.567 22.54V16.94C257.567 16.1933 257.461 15.6067 257.247 15.18C257.034 14.7533 256.747 14.4533 256.387 14.28C256.027 14.1067 255.634 14.02 255.207 14.02C254.861 14.02 254.507 14.1067 254.147 14.28C253.787 14.4533 253.487 14.7533 253.247 15.18C253.021 15.6067 252.907 16.1933 252.907 16.94V22.54C252.907 22.6733 252.861 22.7867 252.767 22.88C252.687 22.96 252.581 23 252.447 23H251.507C251.374 23 251.261 22.96 251.167 22.88C251.087 22.7867 251.047 22.6733 251.047 22.54V16.94C251.047 16.1933 250.934 15.6067 250.707 15.18C250.481 14.7533 250.187 14.4533 249.827 14.28C249.467 14.1067 249.087 14.02 248.687 14.02C248.341 14.02 247.987 14.1067 247.627 14.28C247.267 14.4533 246.967 14.7533 246.727 15.18C246.501 15.6067 246.387 16.1867 246.387 16.92V22.54C246.387 22.6733 246.341 22.7867 246.247 22.88C246.167 22.96 246.061 23 245.927 23H244.967ZM262.741 23C262.607 23 262.494 22.96 262.401 22.88C262.321 22.7867 262.281 22.6733 262.281 22.54V13.06C262.281 12.9267 262.321 12.82 262.401 12.74C262.494 12.6467 262.607 12.6 262.741 12.6H263.701C263.834 12.6 263.941 12.6467 264.021 12.74C264.101 12.82 264.141 12.9267 264.141 13.06V22.54C264.141 22.6733 264.101 22.7867 264.021 22.88C263.941 22.96 263.834 23 263.701 23H262.741ZM262.581 10.66C262.447 10.66 262.334 10.62 262.241 10.54C262.161 10.4467 262.121 10.3333 262.121 10.2V9.12C262.121 8.98667 262.161 8.88 262.241 8.8C262.334 8.70667 262.447 8.66 262.581 8.66H263.841C263.974 8.66 264.081 8.70667 264.161 8.8C264.254 8.88 264.301 8.98667 264.301 9.12V10.2C264.301 10.3333 264.254 10.4467 264.161 10.54C264.081 10.62 263.974 10.66 263.841 10.66H262.581ZM271.304 23.2C269.93 23.2 268.837 22.78 268.024 21.94C267.21 21.0867 266.764 19.9267 266.684 18.46C266.67 18.2867 266.664 18.0667 266.664 17.8C266.664 17.52 266.67 17.2933 266.684 17.12C266.737 16.1733 266.957 15.3467 267.344 14.64C267.73 13.92 268.257 13.3667 268.924 12.98C269.604 12.5933 270.397 12.4 271.304 12.4C272.317 12.4 273.164 12.6133 273.844 13.04C274.537 13.4667 275.064 14.0733 275.424 14.86C275.784 15.6467 275.964 16.5667 275.964 17.62V17.96C275.964 18.1067 275.917 18.22 275.824 18.3C275.744 18.38 275.637 18.42 275.504 18.42H268.584C268.584 18.4333 268.584 18.46 268.584 18.5C268.584 18.54 268.584 18.5733 268.584 18.6C268.61 19.1467 268.73 19.66 268.944 20.14C269.157 20.6067 269.464 20.9867 269.864 21.28C270.264 21.5733 270.744 21.72 271.304 21.72C271.784 21.72 272.184 21.6467 272.504 21.5C272.824 21.3533 273.084 21.1933 273.284 21.02C273.484 20.8333 273.617 20.6933 273.684 20.6C273.804 20.4267 273.897 20.3267 273.964 20.3C274.03 20.26 274.137 20.24 274.284 20.24H275.244C275.377 20.24 275.484 20.28 275.564 20.36C275.657 20.4267 275.697 20.5267 275.684 20.66C275.67 20.86 275.564 21.1067 275.364 21.4C275.164 21.68 274.877 21.96 274.504 22.24C274.13 22.52 273.677 22.7533 273.144 22.94C272.61 23.1133 271.997 23.2 271.304 23.2ZM268.584 17.04H274.064V16.98C274.064 16.38 273.95 15.8467 273.724 15.38C273.51 14.9133 273.197 14.5467 272.784 14.28C272.37 14 271.877 13.86 271.304 13.86C270.73 13.86 270.237 14 269.824 14.28C269.424 14.5467 269.117 14.9133 268.904 15.38C268.69 15.8467 268.584 16.38 268.584 16.98V17.04ZM278.815 23C278.682 23 278.568 22.96 278.475 22.88C278.395 22.7867 278.355 22.6733 278.355 22.54V13.06C278.355 12.9267 278.395 12.82 278.475 12.74C278.568 12.6467 278.682 12.6 278.815 12.6H279.755C279.888 12.6 279.995 12.6467 280.075 12.74C280.168 12.82 280.215 12.9267 280.215 13.06V13.94C280.562 13.4867 280.995 13.12 281.515 12.84C282.048 12.5467 282.728 12.4 283.555 12.4C284.422 12.4 285.155 12.5933 285.755 12.98C286.368 13.3533 286.828 13.88 287.135 14.56C287.442 15.2267 287.595 16.0067 287.595 16.9V22.54C287.595 22.6733 287.555 22.7867 287.475 22.88C287.395 22.96 287.288 23 287.155 23H286.155C286.022 23 285.908 22.96 285.815 22.88C285.735 22.7867 285.695 22.6733 285.695 22.54V17C285.695 16.0667 285.468 15.34 285.015 14.82C284.562 14.2867 283.895 14.02 283.015 14.02C282.188 14.02 281.522 14.2867 281.015 14.82C280.522 15.34 280.275 16.0667 280.275 17V22.54C280.275 22.6733 280.228 22.7867 280.135 22.88C280.055 22.96 279.948 23 279.815 23H278.815ZM294.407 23C293.661 23 293.054 22.86 292.587 22.58C292.121 22.2867 291.781 21.88 291.567 21.36C291.354 20.8267 291.247 20.2 291.247 19.48V14.2H289.687C289.554 14.2 289.441 14.16 289.347 14.08C289.267 13.9867 289.227 13.8733 289.227 13.74V13.06C289.227 12.9267 289.267 12.82 289.347 12.74C289.441 12.6467 289.554 12.6 289.687 12.6H291.247V9.26C291.247 9.12667 291.287 9.02 291.367 8.94C291.461 8.84667 291.574 8.8 291.707 8.8H292.647C292.781 8.8 292.887 8.84667 292.967 8.94C293.061 9.02 293.107 9.12667 293.107 9.26V12.6H295.587C295.721 12.6 295.827 12.6467 295.907 12.74C296.001 12.82 296.047 12.9267 296.047 13.06V13.74C296.047 13.8733 296.001 13.9867 295.907 14.08C295.827 14.16 295.721 14.2 295.587 14.2H293.107V19.34C293.107 19.9667 293.214 20.46 293.427 20.82C293.641 21.18 294.021 21.36 294.567 21.36H295.787C295.921 21.36 296.027 21.4067 296.107 21.5C296.201 21.58 296.247 21.6867 296.247 21.82V22.54C296.247 22.6733 296.201 22.7867 296.107 22.88C296.027 22.96 295.921 23 295.787 23H294.407ZM301.06 23.2C300.393 23.2 299.786 23.0667 299.24 22.8C298.693 22.5333 298.253 22.1733 297.92 21.72C297.586 21.2667 297.42 20.7533 297.42 20.18C297.42 19.26 297.793 18.5267 298.54 17.98C299.286 17.4333 300.26 17.0733 301.46 16.9L304.44 16.48V15.9C304.44 15.26 304.253 14.76 303.88 14.4C303.52 14.04 302.926 13.86 302.1 13.86C301.5 13.86 301.013 13.98 300.64 14.22C300.28 14.46 300.026 14.7667 299.88 15.14C299.8 15.34 299.66 15.44 299.46 15.44H298.56C298.413 15.44 298.3 15.4 298.22 15.32C298.153 15.2267 298.12 15.12 298.12 15C298.12 14.8 298.193 14.5533 298.34 14.26C298.5 13.9667 298.74 13.68 299.06 13.4C299.38 13.12 299.786 12.8867 300.28 12.7C300.786 12.5 301.4 12.4 302.12 12.4C302.92 12.4 303.593 12.5067 304.14 12.72C304.686 12.92 305.113 13.1933 305.42 13.54C305.74 13.8867 305.966 14.28 306.1 14.72C306.246 15.16 306.32 15.6067 306.32 16.06V22.54C306.32 22.6733 306.273 22.7867 306.18 22.88C306.1 22.96 305.993 23 305.86 23H304.94C304.793 23 304.68 22.96 304.6 22.88C304.52 22.7867 304.48 22.6733 304.48 22.54V21.68C304.306 21.92 304.073 22.16 303.78 22.4C303.486 22.6267 303.12 22.82 302.68 22.98C302.24 23.1267 301.7 23.2 301.06 23.2ZM301.48 21.7C302.026 21.7 302.526 21.5867 302.98 21.36C303.433 21.12 303.786 20.7533 304.04 20.26C304.306 19.7667 304.44 19.1467 304.44 18.4V17.84L302.12 18.18C301.173 18.3133 300.46 18.54 299.98 18.86C299.5 19.1667 299.26 19.56 299.26 20.04C299.26 20.4133 299.366 20.7267 299.58 20.98C299.806 21.22 300.086 21.4 300.42 21.52C300.766 21.64 301.12 21.7 301.48 21.7ZM317.897 23.2C317.164 23.2 316.531 23.0733 315.997 22.82C315.464 22.5533 315.024 22.2 314.677 21.76C314.344 21.3067 314.091 20.7933 313.917 20.22C313.757 19.6467 313.664 19.04 313.637 18.4C313.624 18.1867 313.617 17.9867 313.617 17.8C313.617 17.6133 313.624 17.4133 313.637 17.2C313.664 16.5733 313.757 15.9733 313.917 15.4C314.091 14.8267 314.344 14.3133 314.677 13.86C315.024 13.4067 315.464 13.0533 315.997 12.8C316.531 12.5333 317.164 12.4 317.897 12.4C318.684 12.4 319.337 12.54 319.857 12.82C320.377 13.1 320.804 13.4467 321.137 13.86V9.26C321.137 9.12667 321.177 9.02 321.257 8.94C321.351 8.84667 321.464 8.8 321.597 8.8H322.557C322.691 8.8 322.797 8.84667 322.877 8.94C322.971 9.02 323.017 9.12667 323.017 9.26V22.54C323.017 22.6733 322.971 22.7867 322.877 22.88C322.797 22.96 322.691 23 322.557 23H321.657C321.511 23 321.397 22.96 321.317 22.88C321.237 22.7867 321.197 22.6733 321.197 22.54V21.7C320.864 22.1267 320.431 22.4867 319.897 22.78C319.364 23.06 318.697 23.2 317.897 23.2ZM318.317 21.58C318.984 21.58 319.517 21.4267 319.917 21.12C320.317 20.8133 320.617 20.4267 320.817 19.96C321.017 19.48 321.124 18.9933 321.137 18.5C321.151 18.2867 321.157 18.0333 321.157 17.74C321.157 17.4333 321.151 17.1733 321.137 16.96C321.124 16.4933 321.011 16.0333 320.797 15.58C320.597 15.1267 320.291 14.7533 319.877 14.46C319.477 14.1667 318.957 14.02 318.317 14.02C317.637 14.02 317.097 14.1733 316.697 14.48C316.297 14.7733 316.011 15.1667 315.837 15.66C315.664 16.14 315.564 16.66 315.537 17.22C315.524 17.6067 315.524 17.9933 315.537 18.38C315.564 18.94 315.664 19.4667 315.837 19.96C316.011 20.44 316.297 20.8333 316.697 21.14C317.097 21.4333 317.637 21.58 318.317 21.58ZM330.132 23.2C328.758 23.2 327.665 22.78 326.852 21.94C326.038 21.0867 325.592 19.9267 325.512 18.46C325.498 18.2867 325.492 18.0667 325.492 17.8C325.492 17.52 325.498 17.2933 325.512 17.12C325.565 16.1733 325.785 15.3467 326.172 14.64C326.558 13.92 327.085 13.3667 327.752 12.98C328.432 12.5933 329.225 12.4 330.132 12.4C331.145 12.4 331.992 12.6133 332.672 13.04C333.365 13.4667 333.892 14.0733 334.252 14.86C334.612 15.6467 334.792 16.5667 334.792 17.62V17.96C334.792 18.1067 334.745 18.22 334.652 18.3C334.572 18.38 334.465 18.42 334.332 18.42H327.412C327.412 18.4333 327.412 18.46 327.412 18.5C327.412 18.54 327.412 18.5733 327.412 18.6C327.438 19.1467 327.558 19.66 327.772 20.14C327.985 20.6067 328.292 20.9867 328.692 21.28C329.092 21.5733 329.572 21.72 330.132 21.72C330.612 21.72 331.012 21.6467 331.332 21.5C331.652 21.3533 331.912 21.1933 332.112 21.02C332.312 20.8333 332.445 20.6933 332.512 20.6C332.632 20.4267 332.725 20.3267 332.792 20.3C332.858 20.26 332.965 20.24 333.112 20.24H334.072C334.205 20.24 334.312 20.28 334.392 20.36C334.485 20.4267 334.525 20.5267 334.512 20.66C334.498 20.86 334.392 21.1067 334.192 21.4C333.992 21.68 333.705 21.96 333.332 22.24C332.958 22.52 332.505 22.7533 331.972 22.94C331.438 23.1133 330.825 23.2 330.132 23.2ZM327.412 17.04H332.892V16.98C332.892 16.38 332.778 15.8467 332.552 15.38C332.338 14.9133 332.025 14.5467 331.612 14.28C331.198 14 330.705 13.86 330.132 13.86C329.558 13.86 329.065 14 328.652 14.28C328.252 14.5467 327.945 14.9133 327.732 15.38C327.518 15.8467 327.412 16.38 327.412 16.98V17.04ZM347.425 23.2C346.252 23.2 345.252 22.98 344.425 22.54C343.612 22.1 342.985 21.48 342.545 20.68C342.119 19.88 341.879 18.94 341.825 17.86C341.812 17.2733 341.805 16.6533 341.805 16C341.805 15.3333 341.812 14.7 341.825 14.1C341.879 13.02 342.119 12.0867 342.545 11.3C342.985 10.5133 343.619 9.9 344.445 9.46C345.272 9.02 346.265 8.8 347.425 8.8C348.372 8.8 349.192 8.93333 349.885 9.2C350.579 9.46667 351.145 9.80667 351.585 10.22C352.039 10.62 352.372 11.04 352.585 11.48C352.812 11.92 352.932 12.3067 352.945 12.64C352.959 12.76 352.925 12.86 352.845 12.94C352.765 13.0067 352.659 13.04 352.525 13.04H351.345C351.212 13.04 351.112 13.0133 351.045 12.96C350.992 12.9067 350.939 12.8133 350.885 12.68C350.765 12.3333 350.565 11.9933 350.285 11.66C350.019 11.3267 349.652 11.0533 349.185 10.84C348.732 10.6133 348.145 10.5 347.425 10.5C346.372 10.5 345.519 10.7867 344.865 11.36C344.225 11.9333 343.879 12.88 343.825 14.2C343.785 15.3867 343.785 16.5733 343.825 17.76C343.879 19.0933 344.232 20.0533 344.885 20.64C345.539 21.2133 346.392 21.5 347.445 21.5C348.152 21.5 348.779 21.3733 349.325 21.12C349.885 20.8533 350.325 20.4467 350.645 19.9C350.965 19.3533 351.125 18.66 351.125 17.82V16.98H348.125C347.992 16.98 347.879 16.94 347.785 16.86C347.705 16.7667 347.665 16.6467 347.665 16.5V15.86C347.665 15.7133 347.705 15.6 347.785 15.52C347.879 15.4267 347.992 15.38 348.125 15.38H352.645C352.792 15.38 352.905 15.4267 352.985 15.52C353.065 15.6 353.105 15.7133 353.105 15.86V17.78C353.105 18.8733 352.879 19.8267 352.425 20.64C351.985 21.4533 351.339 22.0867 350.485 22.54C349.632 22.98 348.612 23.2 347.425 23.2ZM359.839 23.2C358.465 23.2 357.372 22.78 356.559 21.94C355.745 21.0867 355.299 19.9267 355.219 18.46C355.205 18.2867 355.199 18.0667 355.199 17.8C355.199 17.52 355.205 17.2933 355.219 17.12C355.272 16.1733 355.492 15.3467 355.879 14.64C356.265 13.92 356.792 13.3667 357.459 12.98C358.139 12.5933 358.932 12.4 359.839 12.4C360.852 12.4 361.699 12.6133 362.379 13.04C363.072 13.4667 363.599 14.0733 363.959 14.86C364.319 15.6467 364.499 16.5667 364.499 17.62V17.96C364.499 18.1067 364.452 18.22 364.359 18.3C364.279 18.38 364.172 18.42 364.039 18.42H357.119C357.119 18.4333 357.119 18.46 357.119 18.5C357.119 18.54 357.119 18.5733 357.119 18.6C357.145 19.1467 357.265 19.66 357.479 20.14C357.692 20.6067 357.999 20.9867 358.399 21.28C358.799 21.5733 359.279 21.72 359.839 21.72C360.319 21.72 360.719 21.6467 361.039 21.5C361.359 21.3533 361.619 21.1933 361.819 21.02C362.019 20.8333 362.152 20.6933 362.219 20.6C362.339 20.4267 362.432 20.3267 362.499 20.3C362.565 20.26 362.672 20.24 362.819 20.24H363.779C363.912 20.24 364.019 20.28 364.099 20.36C364.192 20.4267 364.232 20.5267 364.219 20.66C364.205 20.86 364.099 21.1067 363.899 21.4C363.699 21.68 363.412 21.96 363.039 22.24C362.665 22.52 362.212 22.7533 361.679 22.94C361.145 23.1133 360.532 23.2 359.839 23.2ZM357.119 17.04H362.599V16.98C362.599 16.38 362.485 15.8467 362.259 15.38C362.045 14.9133 361.732 14.5467 361.319 14.28C360.905 14 360.412 13.86 359.839 13.86C359.265 13.86 358.772 14 358.359 14.28C357.959 14.5467 357.652 14.9133 357.439 15.38C357.225 15.8467 357.119 16.38 357.119 16.98V17.04ZM370.49 23.2C369.743 23.2 369.103 23.1067 368.57 22.92C368.037 22.7333 367.603 22.5067 367.27 22.24C366.937 21.9733 366.683 21.7067 366.51 21.44C366.35 21.1733 366.263 20.96 366.25 20.8C366.237 20.6533 366.283 20.54 366.39 20.46C366.497 20.38 366.603 20.34 366.71 20.34H367.59C367.67 20.34 367.73 20.3533 367.77 20.38C367.823 20.3933 367.89 20.4467 367.97 20.54C368.143 20.7267 368.337 20.9133 368.55 21.1C368.763 21.2867 369.023 21.44 369.33 21.56C369.65 21.68 370.043 21.74 370.51 21.74C371.19 21.74 371.75 21.6133 372.19 21.36C372.63 21.0933 372.85 20.7067 372.85 20.2C372.85 19.8667 372.757 19.6 372.57 19.4C372.397 19.2 372.077 19.02 371.61 18.86C371.157 18.7 370.53 18.5333 369.73 18.36C368.93 18.1733 368.297 17.9467 367.83 17.68C367.363 17.4 367.03 17.0733 366.83 16.7C366.63 16.3133 366.53 15.88 366.53 15.4C366.53 14.9067 366.677 14.4333 366.97 13.98C367.263 13.5133 367.69 13.1333 368.25 12.84C368.823 12.5467 369.537 12.4 370.39 12.4C371.083 12.4 371.677 12.4867 372.17 12.66C372.663 12.8333 373.07 13.0533 373.39 13.32C373.71 13.5733 373.95 13.8267 374.11 14.08C374.27 14.3333 374.357 14.5467 374.37 14.72C374.383 14.8533 374.343 14.9667 374.25 15.06C374.157 15.14 374.05 15.18 373.93 15.18H373.09C372.997 15.18 372.917 15.16 372.85 15.12C372.797 15.08 372.743 15.0333 372.69 14.98C372.557 14.8067 372.397 14.6333 372.21 14.46C372.037 14.2867 371.803 14.1467 371.51 14.04C371.23 13.92 370.857 13.86 370.39 13.86C369.723 13.86 369.223 14 368.89 14.28C368.557 14.56 368.39 14.9133 368.39 15.34C368.39 15.5933 368.463 15.82 368.61 16.02C368.757 16.22 369.037 16.4 369.45 16.56C369.863 16.72 370.477 16.8933 371.29 17.08C372.17 17.2533 372.863 17.4867 373.37 17.78C373.877 18.0733 374.237 18.4133 374.45 18.8C374.663 19.1867 374.77 19.6333 374.77 20.14C374.77 20.7 374.603 21.2133 374.27 21.68C373.95 22.1467 373.47 22.52 372.83 22.8C372.203 23.0667 371.423 23.2 370.49 23.2ZM381.126 23C380.379 23 379.773 22.86 379.306 22.58C378.839 22.2867 378.499 21.88 378.286 21.36C378.073 20.8267 377.966 20.2 377.966 19.48V14.2H376.406C376.273 14.2 376.159 14.16 376.066 14.08C375.986 13.9867 375.946 13.8733 375.946 13.74V13.06C375.946 12.9267 375.986 12.82 376.066 12.74C376.159 12.6467 376.273 12.6 376.406 12.6H377.966V9.26C377.966 9.12667 378.006 9.02 378.086 8.94C378.179 8.84667 378.293 8.8 378.426 8.8H379.366C379.499 8.8 379.606 8.84667 379.686 8.94C379.779 9.02 379.826 9.12667 379.826 9.26V12.6H382.306C382.439 12.6 382.546 12.6467 382.626 12.74C382.719 12.82 382.766 12.9267 382.766 13.06V13.74C382.766 13.8733 382.719 13.9867 382.626 14.08C382.546 14.16 382.439 14.2 382.306 14.2H379.826V19.34C379.826 19.9667 379.933 20.46 380.146 20.82C380.359 21.18 380.739 21.36 381.286 21.36H382.506C382.639 21.36 382.746 21.4067 382.826 21.5C382.919 21.58 382.966 21.6867 382.966 21.82V22.54C382.966 22.6733 382.919 22.7867 382.826 22.88C382.746 22.96 382.639 23 382.506 23H381.126ZM385.338 23C385.205 23 385.092 22.96 384.998 22.88C384.918 22.7867 384.878 22.6733 384.878 22.54V13.06C384.878 12.9267 384.918 12.82 384.998 12.74C385.092 12.6467 385.205 12.6 385.338 12.6H386.298C386.432 12.6 386.538 12.6467 386.618 12.74C386.698 12.82 386.738 12.9267 386.738 13.06V22.54C386.738 22.6733 386.698 22.7867 386.618 22.88C386.538 22.96 386.432 23 386.298 23H385.338ZM385.178 10.66C385.045 10.66 384.932 10.62 384.838 10.54C384.758 10.4467 384.718 10.3333 384.718 10.2V9.12C384.718 8.98667 384.758 8.88 384.838 8.8C384.932 8.70667 385.045 8.66 385.178 8.66H386.438C386.572 8.66 386.678 8.70667 386.758 8.8C386.852 8.88 386.898 8.98667 386.898 9.12V10.2C386.898 10.3333 386.852 10.4467 386.758 10.54C386.678 10.62 386.572 10.66 386.438 10.66H385.178ZM394.021 23.2C393.008 23.2 392.161 23.0067 391.481 22.62C390.801 22.2333 390.281 21.7 389.921 21.02C389.561 20.3267 389.361 19.54 389.321 18.66C389.308 18.4333 389.301 18.1467 389.301 17.8C389.301 17.44 389.308 17.1533 389.321 16.94C389.361 16.0467 389.561 15.26 389.921 14.58C390.295 13.9 390.821 13.3667 391.501 12.98C392.181 12.5933 393.021 12.4 394.021 12.4C395.021 12.4 395.861 12.5933 396.541 12.98C397.221 13.3667 397.741 13.9 398.101 14.58C398.475 15.26 398.681 16.0467 398.721 16.94C398.735 17.1533 398.741 17.44 398.741 17.8C398.741 18.1467 398.735 18.4333 398.721 18.66C398.681 19.54 398.481 20.3267 398.121 21.02C397.761 21.7 397.241 22.2333 396.561 22.62C395.881 23.0067 395.035 23.2 394.021 23.2ZM394.021 21.66C394.848 21.66 395.508 21.4 396.001 20.88C396.495 20.3467 396.761 19.5733 396.801 18.56C396.815 18.36 396.821 18.1067 396.821 17.8C396.821 17.4933 396.815 17.24 396.801 17.04C396.761 16.0267 396.495 15.26 396.001 14.74C395.508 14.2067 394.848 13.94 394.021 13.94C393.195 13.94 392.528 14.2067 392.021 14.74C391.528 15.26 391.268 16.0267 391.241 17.04C391.228 17.24 391.221 17.4933 391.221 17.8C391.221 18.1067 391.228 18.36 391.241 18.56C391.268 19.5733 391.528 20.3467 392.021 20.88C392.528 21.4 393.195 21.66 394.021 21.66ZM393.461 11.1C393.248 11.1 393.141 10.9933 393.141 10.78C393.141 10.6733 393.175 10.5867 393.241 10.52L394.741 8.72C394.861 8.57333 394.968 8.48 395.061 8.44C395.155 8.38667 395.295 8.36 395.481 8.36H396.841C397.095 8.36 397.221 8.48667 397.221 8.74C397.221 8.83333 397.188 8.91333 397.121 8.98L394.801 10.88C394.695 10.9733 394.595 11.0333 394.501 11.06C394.408 11.0867 394.288 11.1 394.141 11.1H393.461ZM401.706 23C401.572 23 401.459 22.96 401.366 22.88C401.286 22.7867 401.246 22.6733 401.246 22.54V13.06C401.246 12.9267 401.286 12.82 401.366 12.74C401.459 12.6467 401.572 12.6 401.706 12.6H402.646C402.779 12.6 402.886 12.6467 402.966 12.74C403.059 12.82 403.106 12.9267 403.106 13.06V13.94C403.452 13.4867 403.886 13.12 404.406 12.84C404.939 12.5467 405.619 12.4 406.446 12.4C407.312 12.4 408.046 12.5933 408.646 12.98C409.259 13.3533 409.719 13.88 410.026 14.56C410.332 15.2267 410.486 16.0067 410.486 16.9V22.54C410.486 22.6733 410.446 22.7867 410.366 22.88C410.286 22.96 410.179 23 410.046 23H409.046C408.912 23 408.799 22.96 408.706 22.88C408.626 22.7867 408.586 22.6733 408.586 22.54V17C408.586 16.0667 408.359 15.34 407.906 14.82C407.452 14.2867 406.786 14.02 405.906 14.02C405.079 14.02 404.412 14.2867 403.906 14.82C403.412 15.34 403.166 16.0667 403.166 17V22.54C403.166 22.6733 403.119 22.7867 403.026 22.88C402.946 22.96 402.839 23 402.706 23H401.706ZM422.077 23.2C421.344 23.2 420.71 23.0733 420.177 22.82C419.644 22.5533 419.204 22.2 418.857 21.76C418.524 21.3067 418.27 20.7933 418.097 20.22C417.937 19.6467 417.844 19.04 417.817 18.4C417.804 18.1867 417.797 17.9867 417.797 17.8C417.797 17.6133 417.804 17.4133 417.817 17.2C417.844 16.5733 417.937 15.9733 418.097 15.4C418.27 14.8267 418.524 14.3133 418.857 13.86C419.204 13.4067 419.644 13.0533 420.177 12.8C420.71 12.5333 421.344 12.4 422.077 12.4C422.864 12.4 423.517 12.54 424.037 12.82C424.557 13.1 424.984 13.4467 425.317 13.86V9.26C425.317 9.12667 425.357 9.02 425.437 8.94C425.53 8.84667 425.644 8.8 425.777 8.8H426.737C426.87 8.8 426.977 8.84667 427.057 8.94C427.15 9.02 427.197 9.12667 427.197 9.26V22.54C427.197 22.6733 427.15 22.7867 427.057 22.88C426.977 22.96 426.87 23 426.737 23H425.837C425.69 23 425.577 22.96 425.497 22.88C425.417 22.7867 425.377 22.6733 425.377 22.54V21.7C425.044 22.1267 424.61 22.4867 424.077 22.78C423.544 23.06 422.877 23.2 422.077 23.2ZM422.497 21.58C423.164 21.58 423.697 21.4267 424.097 21.12C424.497 20.8133 424.797 20.4267 424.997 19.96C425.197 19.48 425.304 18.9933 425.317 18.5C425.33 18.2867 425.337 18.0333 425.337 17.74C425.337 17.4333 425.33 17.1733 425.317 16.96C425.304 16.4933 425.19 16.0333 424.977 15.58C424.777 15.1267 424.47 14.7533 424.057 14.46C423.657 14.1667 423.137 14.02 422.497 14.02C421.817 14.02 421.277 14.1733 420.877 14.48C420.477 14.7733 420.19 15.1667 420.017 15.66C419.844 16.14 419.744 16.66 419.717 17.22C419.704 17.6067 419.704 17.9933 419.717 18.38C419.744 18.94 419.844 19.4667 420.017 19.96C420.19 20.44 420.477 20.8333 420.877 21.14C421.277 21.4333 421.817 21.58 422.497 21.58ZM434.311 23.2C432.938 23.2 431.845 22.78 431.031 21.94C430.218 21.0867 429.771 19.9267 429.691 18.46C429.678 18.2867 429.671 18.0667 429.671 17.8C429.671 17.52 429.678 17.2933 429.691 17.12C429.745 16.1733 429.965 15.3467 430.351 14.64C430.738 13.92 431.265 13.3667 431.931 12.98C432.611 12.5933 433.405 12.4 434.311 12.4C435.325 12.4 436.171 12.6133 436.851 13.04C437.545 13.4667 438.071 14.0733 438.431 14.86C438.791 15.6467 438.971 16.5667 438.971 17.62V17.96C438.971 18.1067 438.925 18.22 438.831 18.3C438.751 18.38 438.645 18.42 438.511 18.42H431.591C431.591 18.4333 431.591 18.46 431.591 18.5C431.591 18.54 431.591 18.5733 431.591 18.6C431.618 19.1467 431.738 19.66 431.951 20.14C432.165 20.6067 432.471 20.9867 432.871 21.28C433.271 21.5733 433.751 21.72 434.311 21.72C434.791 21.72 435.191 21.6467 435.511 21.5C435.831 21.3533 436.091 21.1933 436.291 21.02C436.491 20.8333 436.625 20.6933 436.691 20.6C436.811 20.4267 436.905 20.3267 436.971 20.3C437.038 20.26 437.145 20.24 437.291 20.24H438.251C438.385 20.24 438.491 20.28 438.571 20.36C438.665 20.4267 438.705 20.5267 438.691 20.66C438.678 20.86 438.571 21.1067 438.371 21.4C438.171 21.68 437.885 21.96 437.511 22.24C437.138 22.52 436.685 22.7533 436.151 22.94C435.618 23.1133 435.005 23.2 434.311 23.2ZM431.591 17.04H437.071V16.98C437.071 16.38 436.958 15.8467 436.731 15.38C436.518 14.9133 436.205 14.5467 435.791 14.28C435.378 14 434.885 13.86 434.311 13.86C433.738 13.86 433.245 14 432.831 14.28C432.431 14.5467 432.125 14.9133 431.911 15.38C431.698 15.8467 431.591 16.38 431.591 16.98V17.04ZM446.985 23C446.838 23 446.725 22.96 446.645 22.88C446.565 22.7867 446.525 22.6733 446.525 22.54V9.48C446.525 9.33333 446.565 9.22 446.645 9.14C446.725 9.04667 446.838 9 446.985 9H452.065C453.052 9 453.905 9.16 454.625 9.48C455.358 9.8 455.925 10.28 456.325 10.92C456.725 11.5467 456.925 12.3333 456.925 13.28C456.925 14.2267 456.725 15.0133 456.325 15.64C455.925 16.2667 455.358 16.74 454.625 17.06C453.905 17.38 453.052 17.54 452.065 17.54H448.525V22.54C448.525 22.6733 448.478 22.7867 448.385 22.88C448.305 22.96 448.192 23 448.045 23H446.985ZM448.505 15.86H451.965C452.952 15.86 453.692 15.64 454.185 15.2C454.678 14.76 454.925 14.12 454.925 13.28C454.925 12.4533 454.685 11.8133 454.205 11.36C453.725 10.9067 452.978 10.68 451.965 10.68H448.505V15.86ZM459.557 23C459.424 23 459.311 22.96 459.217 22.88C459.137 22.7867 459.097 22.6733 459.097 22.54V13.08C459.097 12.9467 459.137 12.8333 459.217 12.74C459.311 12.6467 459.424 12.6 459.557 12.6H460.477C460.611 12.6 460.724 12.6467 460.817 12.74C460.911 12.8333 460.957 12.9467 460.957 13.08V13.96C461.224 13.5067 461.591 13.1667 462.057 12.94C462.524 12.7133 463.084 12.6 463.737 12.6H464.537C464.671 12.6 464.777 12.6467 464.857 12.74C464.937 12.82 464.977 12.9267 464.977 13.06V13.88C464.977 14.0133 464.937 14.12 464.857 14.2C464.777 14.28 464.671 14.32 464.537 14.32H463.337C462.617 14.32 462.051 14.5333 461.637 14.96C461.224 15.3733 461.017 15.94 461.017 16.66V22.54C461.017 22.6733 460.971 22.7867 460.877 22.88C460.784 22.96 460.671 23 460.537 23H459.557ZM470.76 23.2C469.746 23.2 468.9 23.0067 468.22 22.62C467.54 22.2333 467.02 21.7 466.66 21.02C466.3 20.3267 466.1 19.54 466.06 18.66C466.046 18.4333 466.04 18.1467 466.04 17.8C466.04 17.44 466.046 17.1533 466.06 16.94C466.1 16.0467 466.3 15.26 466.66 14.58C467.033 13.9 467.56 13.3667 468.24 12.98C468.92 12.5933 469.76 12.4 470.76 12.4C471.76 12.4 472.6 12.5933 473.28 12.98C473.96 13.3667 474.48 13.9 474.84 14.58C475.213 15.26 475.42 16.0467 475.46 16.94C475.473 17.1533 475.48 17.44 475.48 17.8C475.48 18.1467 475.473 18.4333 475.46 18.66C475.42 19.54 475.22 20.3267 474.86 21.02C474.5 21.7 473.98 22.2333 473.3 22.62C472.62 23.0067 471.773 23.2 470.76 23.2ZM470.76 21.66C471.586 21.66 472.246 21.4 472.74 20.88C473.233 20.3467 473.5 19.5733 473.54 18.56C473.553 18.36 473.56 18.1067 473.56 17.8C473.56 17.4933 473.553 17.24 473.54 17.04C473.5 16.0267 473.233 15.26 472.74 14.74C472.246 14.2067 471.586 13.94 470.76 13.94C469.933 13.94 469.266 14.2067 468.76 14.74C468.266 15.26 468.006 16.0267 467.98 17.04C467.966 17.24 467.96 17.4933 467.96 17.8C467.96 18.1067 467.966 18.36 467.98 18.56C468.006 19.5733 468.266 20.3467 468.76 20.88C469.266 21.4 469.933 21.66 470.76 21.66ZM479.413 26.8C479.307 26.8 479.213 26.76 479.133 26.68C479.053 26.6 479.013 26.5067 479.013 26.4C479.013 26.3467 479.02 26.2933 479.033 26.24C479.047 26.1867 479.073 26.12 479.113 26.04L480.653 22.38L476.833 13.36C476.767 13.2 476.733 13.0867 476.733 13.02C476.733 12.9 476.773 12.8 476.853 12.72C476.933 12.64 477.033 12.6 477.153 12.6H478.133C478.267 12.6 478.373 12.6333 478.453 12.7C478.533 12.7667 478.587 12.8467 478.613 12.94L481.653 20.22L484.773 12.94C484.813 12.8467 484.867 12.7667 484.933 12.7C485.013 12.6333 485.127 12.6 485.273 12.6H486.213C486.333 12.6 486.433 12.64 486.513 12.72C486.593 12.8 486.633 12.8933 486.633 13C486.633 13.0667 486.6 13.1867 486.533 13.36L480.853 26.46C480.813 26.5533 480.753 26.6333 480.673 26.7C480.607 26.7667 480.5 26.8 480.353 26.8H479.413ZM492.397 23.2C491.024 23.2 489.931 22.78 489.117 21.94C488.304 21.0867 487.857 19.9267 487.777 18.46C487.764 18.2867 487.757 18.0667 487.757 17.8C487.757 17.52 487.764 17.2933 487.777 17.12C487.831 16.1733 488.051 15.3467 488.437 14.64C488.824 13.92 489.351 13.3667 490.017 12.98C490.697 12.5933 491.491 12.4 492.397 12.4C493.411 12.4 494.257 12.6133 494.937 13.04C495.631 13.4667 496.157 14.0733 496.517 14.86C496.877 15.6467 497.057 16.5667 497.057 17.62V17.96C497.057 18.1067 497.011 18.22 496.917 18.3C496.837 18.38 496.731 18.42 496.597 18.42H489.677C489.677 18.4333 489.677 18.46 489.677 18.5C489.677 18.54 489.677 18.5733 489.677 18.6C489.704 19.1467 489.824 19.66 490.037 20.14C490.251 20.6067 490.557 20.9867 490.957 21.28C491.357 21.5733 491.837 21.72 492.397 21.72C492.877 21.72 493.277 21.6467 493.597 21.5C493.917 21.3533 494.177 21.1933 494.377 21.02C494.577 20.8333 494.711 20.6933 494.777 20.6C494.897 20.4267 494.991 20.3267 495.057 20.3C495.124 20.26 495.231 20.24 495.377 20.24H496.337C496.471 20.24 496.577 20.28 496.657 20.36C496.751 20.4267 496.791 20.5267 496.777 20.66C496.764 20.86 496.657 21.1067 496.457 21.4C496.257 21.68 495.971 21.96 495.597 22.24C495.224 22.52 494.771 22.7533 494.237 22.94C493.704 23.1133 493.091 23.2 492.397 23.2ZM489.677 17.04H495.157V16.98C495.157 16.38 495.044 15.8467 494.817 15.38C494.604 14.9133 494.291 14.5467 493.877 14.28C493.464 14 492.971 13.86 492.397 13.86C491.824 13.86 491.331 14 490.917 14.28C490.517 14.5467 490.211 14.9133 489.997 15.38C489.784 15.8467 489.677 16.38 489.677 16.98V17.04ZM503.649 23.2C502.702 23.2 501.882 23.02 501.189 22.66C500.509 22.2867 499.982 21.76 499.609 21.08C499.235 20.3867 499.035 19.56 499.009 18.6C498.995 18.4 498.989 18.1333 498.989 17.8C498.989 17.4667 498.995 17.2 499.009 17C499.035 16.04 499.235 15.22 499.609 14.54C499.982 13.8467 500.509 13.32 501.189 12.96C501.882 12.5867 502.702 12.4 503.649 12.4C504.422 12.4 505.082 12.5067 505.629 12.72C506.189 12.9333 506.649 13.2067 507.009 13.54C507.369 13.8733 507.635 14.2333 507.809 14.62C507.995 15.0067 508.095 15.3733 508.109 15.72C508.122 15.8533 508.082 15.96 507.989 16.04C507.895 16.12 507.782 16.16 507.649 16.16H506.689C506.555 16.16 506.455 16.1333 506.389 16.08C506.322 16.0133 506.255 15.9067 506.189 15.76C505.949 15.1067 505.622 14.6467 505.209 14.38C504.795 14.1133 504.282 13.98 503.669 13.98C502.869 13.98 502.215 14.2267 501.709 14.72C501.215 15.2133 500.949 16.0067 500.909 17.1C500.895 17.58 500.895 18.0467 500.909 18.5C500.949 19.6067 501.215 20.4067 501.709 20.9C502.215 21.38 502.869 21.62 503.669 21.62C504.282 21.62 504.795 21.4867 505.209 21.22C505.622 20.9533 505.949 20.4933 506.189 19.84C506.255 19.6933 506.322 19.5933 506.389 19.54C506.455 19.4733 506.555 19.44 506.689 19.44H507.649C507.782 19.44 507.895 19.48 507.989 19.56C508.082 19.64 508.122 19.7467 508.109 19.88C508.095 20.16 508.035 20.4467 507.929 20.74C507.822 21.0333 507.649 21.3333 507.409 21.64C507.182 21.9333 506.895 22.2 506.549 22.44C506.202 22.6667 505.782 22.8533 505.289 23C504.809 23.1333 504.262 23.2 503.649 23.2ZM514.544 23C513.797 23 513.191 22.86 512.724 22.58C512.257 22.2867 511.917 21.88 511.704 21.36C511.491 20.8267 511.384 20.2 511.384 19.48V14.2H509.824C509.691 14.2 509.577 14.16 509.484 14.08C509.404 13.9867 509.364 13.8733 509.364 13.74V13.06C509.364 12.9267 509.404 12.82 509.484 12.74C509.577 12.6467 509.691 12.6 509.824 12.6H511.384V9.26C511.384 9.12667 511.424 9.02 511.504 8.94C511.597 8.84667 511.711 8.8 511.844 8.8H512.784C512.917 8.8 513.024 8.84667 513.104 8.94C513.197 9.02 513.244 9.12667 513.244 9.26V12.6H515.724C515.857 12.6 515.964 12.6467 516.044 12.74C516.137 12.82 516.184 12.9267 516.184 13.06V13.74C516.184 13.8733 516.137 13.9867 516.044 14.08C515.964 14.16 515.857 14.2 515.724 14.2H513.244V19.34C513.244 19.9667 513.351 20.46 513.564 20.82C513.777 21.18 514.157 21.36 514.704 21.36H515.924C516.057 21.36 516.164 21.4067 516.244 21.5C516.337 21.58 516.384 21.6867 516.384 21.82V22.54C516.384 22.6733 516.337 22.7867 516.244 22.88C516.164 22.96 516.057 23 515.924 23H514.544ZM522.556 23.2C521.543 23.2 520.696 23.0067 520.016 22.62C519.336 22.2333 518.816 21.7 518.456 21.02C518.096 20.3267 517.896 19.54 517.856 18.66C517.843 18.4333 517.836 18.1467 517.836 17.8C517.836 17.44 517.843 17.1533 517.856 16.94C517.896 16.0467 518.096 15.26 518.456 14.58C518.83 13.9 519.356 13.3667 520.036 12.98C520.716 12.5933 521.556 12.4 522.556 12.4C523.556 12.4 524.396 12.5933 525.076 12.98C525.756 13.3667 526.276 13.9 526.636 14.58C527.01 15.26 527.216 16.0467 527.256 16.94C527.27 17.1533 527.276 17.44 527.276 17.8C527.276 18.1467 527.27 18.4333 527.256 18.66C527.216 19.54 527.016 20.3267 526.656 21.02C526.296 21.7 525.776 22.2333 525.096 22.62C524.416 23.0067 523.57 23.2 522.556 23.2ZM522.556 21.66C523.383 21.66 524.043 21.4 524.536 20.88C525.03 20.3467 525.296 19.5733 525.336 18.56C525.35 18.36 525.356 18.1067 525.356 17.8C525.356 17.4933 525.35 17.24 525.336 17.04C525.296 16.0267 525.03 15.26 524.536 14.74C524.043 14.2067 523.383 13.94 522.556 13.94C521.73 13.94 521.063 14.2067 520.556 14.74C520.063 15.26 519.803 16.0267 519.776 17.04C519.763 17.24 519.756 17.4933 519.756 17.8C519.756 18.1067 519.763 18.36 519.776 18.56C519.803 19.5733 520.063 20.3467 520.556 20.88C521.063 21.4 521.73 21.66 522.556 21.66ZM533.381 23.2C532.634 23.2 531.994 23.1067 531.461 22.92C530.927 22.7333 530.494 22.5067 530.161 22.24C529.827 21.9733 529.574 21.7067 529.401 21.44C529.241 21.1733 529.154 20.96 529.141 20.8C529.127 20.6533 529.174 20.54 529.281 20.46C529.387 20.38 529.494 20.34 529.601 20.34H530.481C530.561 20.34 530.621 20.3533 530.661 20.38C530.714 20.3933 530.781 20.4467 530.861 20.54C531.034 20.7267 531.227 20.9133 531.441 21.1C531.654 21.2867 531.914 21.44 532.221 21.56C532.541 21.68 532.934 21.74 533.401 21.74C534.081 21.74 534.641 21.6133 535.081 21.36C535.521 21.0933 535.741 20.7067 535.741 20.2C535.741 19.8667 535.647 19.6 535.461 19.4C535.287 19.2 534.967 19.02 534.501 18.86C534.047 18.7 533.421 18.5333 532.621 18.36C531.821 18.1733 531.187 17.9467 530.721 17.68C530.254 17.4 529.921 17.0733 529.721 16.7C529.521 16.3133 529.421 15.88 529.421 15.4C529.421 14.9067 529.567 14.4333 529.861 13.98C530.154 13.5133 530.581 13.1333 531.141 12.84C531.714 12.5467 532.427 12.4 533.281 12.4C533.974 12.4 534.567 12.4867 535.061 12.66C535.554 12.8333 535.961 13.0533 536.281 13.32C536.601 13.5733 536.841 13.8267 537.001 14.08C537.161 14.3333 537.247 14.5467 537.261 14.72C537.274 14.8533 537.234 14.9667 537.141 15.06C537.047 15.14 536.941 15.18 536.821 15.18H535.981C535.887 15.18 535.807 15.16 535.741 15.12C535.687 15.08 535.634 15.0333 535.581 14.98C535.447 14.8067 535.287 14.6333 535.101 14.46C534.927 14.2867 534.694 14.1467 534.401 14.04C534.121 13.92 533.747 13.86 533.281 13.86C532.614 13.86 532.114 14 531.781 14.28C531.447 14.56 531.281 14.9133 531.281 15.34C531.281 15.5933 531.354 15.82 531.501 16.02C531.647 16.22 531.927 16.4 532.341 16.56C532.754 16.72 533.367 16.8933 534.181 17.08C535.061 17.2533 535.754 17.4867 536.261 17.78C536.767 18.0733 537.127 18.4133 537.341 18.8C537.554 19.1867 537.661 19.6333 537.661 20.14C537.661 20.7 537.494 21.2133 537.161 21.68C536.841 22.1467 536.361 22.52 535.721 22.8C535.094 23.0667 534.314 23.2 533.381 23.2Z" fill="#F5F5F5"/>
<path d="M234.952 45.16C234.056 45.16 233.283 45 232.632 44.68C231.992 44.36 231.496 43.8747 231.144 43.224C230.803 42.5627 230.632 41.7147 230.632 40.68V34.184C230.632 34.0667 230.664 33.976 230.728 33.912C230.792 33.8373 230.883 33.8 231 33.8H231.816C231.933 33.8 232.024 33.8373 232.088 33.912C232.163 33.976 232.2 34.0667 232.2 34.184V40.712C232.2 41.7573 232.445 42.5307 232.936 43.032C233.427 43.5333 234.099 43.784 234.952 43.784C235.795 43.784 236.461 43.5333 236.952 43.032C237.453 42.5307 237.704 41.7573 237.704 40.712V34.184C237.704 34.0667 237.736 33.976 237.8 33.912C237.875 33.8373 237.965 33.8 238.072 33.8H238.904C239.011 33.8 239.096 33.8373 239.16 33.912C239.235 33.976 239.272 34.0667 239.272 34.184V40.68C239.272 41.7147 239.096 42.5627 238.744 43.224C238.403 43.8747 237.912 44.36 237.272 44.68C236.632 45 235.859 45.16 234.952 45.16ZM242.107 45C242 45 241.909 44.968 241.835 44.904C241.771 44.8293 241.739 44.7387 241.739 44.632V37.048C241.739 36.9413 241.771 36.856 241.835 36.792C241.909 36.7173 242 36.68 242.107 36.68H242.859C242.965 36.68 243.051 36.7173 243.115 36.792C243.189 36.856 243.227 36.9413 243.227 37.048V37.752C243.504 37.3893 243.851 37.096 244.267 36.872C244.693 36.6373 245.237 36.52 245.899 36.52C246.592 36.52 247.179 36.6747 247.659 36.984C248.149 37.2827 248.517 37.704 248.763 38.248C249.008 38.7813 249.131 39.4053 249.131 40.12V44.632C249.131 44.7387 249.099 44.8293 249.035 44.904C248.971 44.968 248.885 45 248.779 45H247.979C247.872 45 247.781 44.968 247.707 44.904C247.643 44.8293 247.611 44.7387 247.611 44.632V40.2C247.611 39.4533 247.429 38.872 247.067 38.456C246.704 38.0293 246.171 37.816 245.467 37.816C244.805 37.816 244.272 38.0293 243.867 38.456C243.472 38.872 243.275 39.4533 243.275 40.2V44.632C243.275 44.7387 243.237 44.8293 243.163 44.904C243.099 44.968 243.013 45 242.907 45H242.107ZM251.81 45C251.703 45 251.612 44.968 251.538 44.904C251.474 44.8293 251.442 44.7387 251.442 44.632V37.048C251.442 36.9413 251.474 36.856 251.538 36.792C251.612 36.7173 251.703 36.68 251.81 36.68H252.578C252.684 36.68 252.77 36.7173 252.834 36.792C252.898 36.856 252.93 36.9413 252.93 37.048V44.632C252.93 44.7387 252.898 44.8293 252.834 44.904C252.77 44.968 252.684 45 252.578 45H251.81ZM251.682 35.128C251.575 35.128 251.484 35.096 251.41 35.032C251.346 34.9573 251.314 34.8667 251.314 34.76V33.896C251.314 33.7893 251.346 33.704 251.41 33.64C251.484 33.5653 251.575 33.528 251.682 33.528H252.69C252.796 33.528 252.882 33.5653 252.946 33.64C253.02 33.704 253.058 33.7893 253.058 33.896V34.76C253.058 34.8667 253.02 34.9573 252.946 35.032C252.882 35.096 252.796 35.128 252.69 35.128H251.682ZM258.213 45C258.053 45 257.925 44.9627 257.829 44.888C257.743 44.8133 257.674 44.7173 257.621 44.6L254.661 37.176C254.639 37.1227 254.629 37.0693 254.629 37.016C254.629 36.92 254.661 36.84 254.725 36.776C254.789 36.712 254.869 36.68 254.965 36.68H255.733C255.85 36.68 255.941 36.712 256.005 36.776C256.069 36.84 256.106 36.8987 256.117 36.952L258.565 43.256L260.997 36.952C261.018 36.8987 261.055 36.84 261.109 36.776C261.173 36.712 261.263 36.68 261.381 36.68H262.165C262.25 36.68 262.325 36.712 262.389 36.776C262.463 36.84 262.501 36.92 262.501 37.016C262.501 37.0693 262.49 37.1227 262.469 37.176L259.493 44.6C259.45 44.7173 259.381 44.8133 259.285 44.888C259.199 44.9627 259.071 45 258.901 45H258.213ZM267.191 45.16C266.093 45.16 265.218 44.824 264.567 44.152C263.917 43.4693 263.559 42.5413 263.495 41.368C263.485 41.2293 263.479 41.0533 263.479 40.84C263.479 40.616 263.485 40.4347 263.495 40.296C263.538 39.5387 263.714 38.8773 264.023 38.312C264.333 37.736 264.754 37.2933 265.287 36.984C265.831 36.6747 266.466 36.52 267.191 36.52C268.002 36.52 268.679 36.6907 269.223 37.032C269.778 37.3733 270.199 37.8587 270.487 38.488C270.775 39.1173 270.919 39.8533 270.919 40.696V40.968C270.919 41.0853 270.882 41.176 270.807 41.24C270.743 41.304 270.658 41.336 270.551 41.336H265.015C265.015 41.3467 265.015 41.368 265.015 41.4C265.015 41.432 265.015 41.4587 265.015 41.48C265.037 41.9173 265.133 42.328 265.303 42.712C265.474 43.0853 265.719 43.3893 266.039 43.624C266.359 43.8587 266.743 43.976 267.191 43.976C267.575 43.976 267.895 43.9173 268.151 43.8C268.407 43.6827 268.615 43.5547 268.775 43.416C268.935 43.2667 269.042 43.1547 269.095 43.08C269.191 42.9413 269.266 42.8613 269.319 42.84C269.373 42.808 269.458 42.792 269.575 42.792H270.343C270.45 42.792 270.535 42.824 270.599 42.888C270.674 42.9413 270.706 43.0213 270.695 43.128C270.685 43.288 270.599 43.4853 270.439 43.72C270.279 43.944 270.05 44.168 269.751 44.392C269.453 44.616 269.09 44.8027 268.663 44.952C268.237 45.0907 267.746 45.16 267.191 45.16ZM265.015 40.232H269.399V40.184C269.399 39.704 269.309 39.2773 269.127 38.904C268.957 38.5307 268.706 38.2373 268.375 38.024C268.045 37.8 267.65 37.688 267.191 37.688C266.733 37.688 266.338 37.8 266.007 38.024C265.687 38.2373 265.442 38.5307 265.271 38.904C265.101 39.2773 265.015 39.704 265.015 40.184V40.232ZM273.2 45C273.094 45 273.003 44.968 272.928 44.904C272.864 44.8293 272.832 44.7387 272.832 44.632V37.064C272.832 36.9573 272.864 36.8667 272.928 36.792C273.003 36.7173 273.094 36.68 273.2 36.68H273.936C274.043 36.68 274.134 36.7173 274.208 36.792C274.283 36.8667 274.32 36.9573 274.32 37.064V37.768C274.534 37.4053 274.827 37.1333 275.2 36.952C275.574 36.7707 276.022 36.68 276.544 36.68H277.184C277.291 36.68 277.376 36.7173 277.44 36.792C277.504 36.856 277.536 36.9413 277.536 37.048V37.704C277.536 37.8107 277.504 37.896 277.44 37.96C277.376 38.024 277.291 38.056 277.184 38.056H276.224C275.648 38.056 275.195 38.2267 274.864 38.568C274.534 38.8987 274.368 39.352 274.368 39.928V44.632C274.368 44.7387 274.331 44.8293 274.256 44.904C274.182 44.968 274.091 45 273.984 45H273.2ZM281.791 45.16C281.193 45.16 280.681 45.0853 280.255 44.936C279.828 44.7867 279.481 44.6053 279.215 44.392C278.948 44.1787 278.745 43.9653 278.607 43.752C278.479 43.5387 278.409 43.368 278.399 43.24C278.388 43.1227 278.425 43.032 278.511 42.968C278.596 42.904 278.681 42.872 278.767 42.872H279.471C279.535 42.872 279.583 42.8827 279.615 42.904C279.657 42.9147 279.711 42.9573 279.775 43.032C279.913 43.1813 280.068 43.3307 280.239 43.48C280.409 43.6293 280.617 43.752 280.863 43.848C281.119 43.944 281.433 43.992 281.807 43.992C282.351 43.992 282.799 43.8907 283.151 43.688C283.503 43.4747 283.679 43.1653 283.679 42.76C283.679 42.4933 283.604 42.28 283.455 42.12C283.316 41.96 283.06 41.816 282.687 41.688C282.324 41.56 281.823 41.4267 281.183 41.288C280.543 41.1387 280.036 40.9573 279.663 40.744C279.289 40.52 279.023 40.2587 278.863 39.96C278.703 39.6507 278.623 39.304 278.623 38.92C278.623 38.5253 278.74 38.1467 278.975 37.784C279.209 37.4107 279.551 37.1067 279.999 36.872C280.457 36.6373 281.028 36.52 281.711 36.52C282.265 36.52 282.74 36.5893 283.135 36.728C283.529 36.8667 283.855 37.0427 284.111 37.256C284.367 37.4587 284.559 37.6613 284.687 37.864C284.815 38.0667 284.884 38.2373 284.895 38.376C284.905 38.4827 284.873 38.5733 284.799 38.648C284.724 38.712 284.639 38.744 284.543 38.744H283.871C283.796 38.744 283.732 38.728 283.679 38.696C283.636 38.664 283.593 38.6267 283.551 38.584C283.444 38.4453 283.316 38.3067 283.167 38.168C283.028 38.0293 282.841 37.9173 282.607 37.832C282.383 37.736 282.084 37.688 281.711 37.688C281.177 37.688 280.777 37.8 280.511 38.024C280.244 38.248 280.111 38.5307 280.111 38.872C280.111 39.0747 280.169 39.256 280.287 39.416C280.404 39.576 280.628 39.72 280.959 39.848C281.289 39.976 281.78 40.1147 282.431 40.264C283.135 40.4027 283.689 40.5893 284.095 40.824C284.5 41.0587 284.788 41.3307 284.959 41.64C285.129 41.9493 285.215 42.3067 285.215 42.712C285.215 43.16 285.081 43.5707 284.815 43.944C284.559 44.3173 284.175 44.616 283.663 44.84C283.161 45.0533 282.537 45.16 281.791 45.16ZM287.435 45C287.328 45 287.237 44.968 287.163 44.904C287.099 44.8293 287.067 44.7387 287.067 44.632V37.048C287.067 36.9413 287.099 36.856 287.163 36.792C287.237 36.7173 287.328 36.68 287.435 36.68H288.203C288.309 36.68 288.395 36.7173 288.459 36.792C288.523 36.856 288.555 36.9413 288.555 37.048V44.632C288.555 44.7387 288.523 44.8293 288.459 44.904C288.395 44.968 288.309 45 288.203 45H287.435ZM287.307 35.128C287.2 35.128 287.109 35.096 287.035 35.032C286.971 34.9573 286.939 34.8667 286.939 34.76V33.896C286.939 33.7893 286.971 33.704 287.035 33.64C287.109 33.5653 287.2 33.528 287.307 33.528H288.315C288.421 33.528 288.507 33.5653 288.571 33.64C288.645 33.704 288.683 33.7893 288.683 33.896V34.76C288.683 34.8667 288.645 34.9573 288.571 35.032C288.507 35.096 288.421 35.128 288.315 35.128H287.307ZM293.982 45.16C293.395 45.16 292.888 45.0587 292.462 44.856C292.035 44.6427 291.683 44.36 291.406 44.008C291.139 43.6453 290.936 43.2347 290.798 42.776C290.67 42.3173 290.595 41.832 290.574 41.32C290.563 41.1493 290.558 40.9893 290.558 40.84C290.558 40.6907 290.563 40.5307 290.574 40.36C290.595 39.8587 290.67 39.3787 290.798 38.92C290.936 38.4613 291.139 38.0507 291.406 37.688C291.683 37.3253 292.035 37.0427 292.462 36.84C292.888 36.6267 293.395 36.52 293.982 36.52C294.611 36.52 295.134 36.632 295.55 36.856C295.966 37.08 296.307 37.3573 296.574 37.688V34.008C296.574 33.9013 296.606 33.816 296.67 33.752C296.744 33.6773 296.835 33.64 296.942 33.64H297.71C297.816 33.64 297.902 33.6773 297.966 33.752C298.04 33.816 298.078 33.9013 298.078 34.008V44.632C298.078 44.7387 298.04 44.8293 297.966 44.904C297.902 44.968 297.816 45 297.71 45H296.99C296.872 45 296.782 44.968 296.718 44.904C296.654 44.8293 296.622 44.7387 296.622 44.632V43.96C296.355 44.3013 296.008 44.5893 295.582 44.824C295.155 45.048 294.622 45.16 293.982 45.16ZM294.318 43.864C294.851 43.864 295.278 43.7413 295.598 43.496C295.918 43.2507 296.158 42.9413 296.318 42.568C296.478 42.184 296.563 41.7947 296.574 41.4C296.584 41.2293 296.59 41.0267 296.59 40.792C296.59 40.5467 296.584 40.3387 296.574 40.168C296.563 39.7947 296.472 39.4267 296.302 39.064C296.142 38.7013 295.896 38.4027 295.566 38.168C295.246 37.9333 294.83 37.816 294.318 37.816C293.774 37.816 293.342 37.9387 293.022 38.184C292.702 38.4187 292.472 38.7333 292.334 39.128C292.195 39.512 292.115 39.928 292.094 40.376C292.083 40.6853 292.083 40.9947 292.094 41.304C292.115 41.752 292.195 42.1733 292.334 42.568C292.472 42.952 292.702 43.2667 293.022 43.512C293.342 43.7467 293.774 43.864 294.318 43.864ZM302.777 45.16C302.244 45.16 301.759 45.0533 301.321 44.84C300.884 44.6267 300.532 44.3387 300.265 43.976C299.999 43.6133 299.865 43.2027 299.865 42.744C299.865 42.008 300.164 41.4213 300.761 40.984C301.359 40.5467 302.137 40.2587 303.097 40.12L305.481 39.784V39.32C305.481 38.808 305.332 38.408 305.033 38.12C304.745 37.832 304.271 37.688 303.609 37.688C303.129 37.688 302.74 37.784 302.441 37.976C302.153 38.168 301.951 38.4133 301.833 38.712C301.769 38.872 301.657 38.952 301.497 38.952H300.777C300.66 38.952 300.569 38.92 300.505 38.856C300.452 38.7813 300.425 38.696 300.425 38.6C300.425 38.44 300.484 38.2427 300.601 38.008C300.729 37.7733 300.921 37.544 301.177 37.32C301.433 37.096 301.759 36.9093 302.153 36.76C302.559 36.6 303.049 36.52 303.625 36.52C304.265 36.52 304.804 36.6053 305.241 36.776C305.679 36.936 306.02 37.1547 306.265 37.432C306.521 37.7093 306.703 38.024 306.809 38.376C306.927 38.728 306.985 39.0853 306.985 39.448V44.632C306.985 44.7387 306.948 44.8293 306.873 44.904C306.809 44.968 306.724 45 306.617 45H305.881C305.764 45 305.673 44.968 305.609 44.904C305.545 44.8293 305.513 44.7387 305.513 44.632V43.944C305.375 44.136 305.188 44.328 304.953 44.52C304.719 44.7013 304.425 44.856 304.073 44.984C303.721 45.1013 303.289 45.16 302.777 45.16ZM303.113 43.96C303.551 43.96 303.951 43.8693 304.313 43.688C304.676 43.496 304.959 43.2027 305.161 42.808C305.375 42.4133 305.481 41.9173 305.481 41.32V40.872L303.625 41.144C302.868 41.2507 302.297 41.432 301.913 41.688C301.529 41.9333 301.337 42.248 301.337 42.632C301.337 42.9307 301.423 43.1813 301.593 43.384C301.775 43.576 301.999 43.72 302.265 43.816C302.543 43.912 302.825 43.96 303.113 43.96ZM312.326 45.16C311.739 45.16 311.232 45.0587 310.806 44.856C310.379 44.6427 310.027 44.36 309.75 44.008C309.483 43.6453 309.28 43.2347 309.142 42.776C309.014 42.3173 308.939 41.832 308.918 41.32C308.907 41.1493 308.902 40.9893 308.902 40.84C308.902 40.6907 308.907 40.5307 308.918 40.36C308.939 39.8587 309.014 39.3787 309.142 38.92C309.28 38.4613 309.483 38.0507 309.75 37.688C310.027 37.3253 310.379 37.0427 310.806 36.84C311.232 36.6267 311.739 36.52 312.326 36.52C312.955 36.52 313.478 36.632 313.894 36.856C314.31 37.08 314.651 37.3573 314.918 37.688V34.008C314.918 33.9013 314.95 33.816 315.014 33.752C315.088 33.6773 315.179 33.64 315.286 33.64H316.054C316.16 33.64 316.246 33.6773 316.31 33.752C316.384 33.816 316.422 33.9013 316.422 34.008V44.632C316.422 44.7387 316.384 44.8293 316.31 44.904C316.246 44.968 316.16 45 316.054 45H315.334C315.216 45 315.126 44.968 315.062 44.904C314.998 44.8293 314.966 44.7387 314.966 44.632V43.96C314.699 44.3013 314.352 44.5893 313.926 44.824C313.499 45.048 312.966 45.16 312.326 45.16ZM312.662 43.864C313.195 43.864 313.622 43.7413 313.942 43.496C314.262 43.2507 314.502 42.9413 314.662 42.568C314.822 42.184 314.907 41.7947 314.918 41.4C314.928 41.2293 314.934 41.0267 314.934 40.792C314.934 40.5467 314.928 40.3387 314.918 40.168C314.907 39.7947 314.816 39.4267 314.646 39.064C314.486 38.7013 314.24 38.4027 313.91 38.168C313.59 37.9333 313.174 37.816 312.662 37.816C312.118 37.816 311.686 37.9387 311.366 38.184C311.046 38.4187 310.816 38.7333 310.678 39.128C310.539 39.512 310.459 39.928 310.438 40.376C310.427 40.6853 310.427 40.9947 310.438 41.304C310.459 41.752 310.539 42.1733 310.678 42.568C310.816 42.952 311.046 43.2667 311.366 43.512C311.686 43.7467 312.118 43.864 312.662 43.864ZM321.757 45C321.672 45 321.597 44.968 321.533 44.904C321.469 44.84 321.437 44.7653 321.437 44.68C321.437 44.6267 321.443 44.568 321.453 44.504L325.421 34.152C325.464 34.0453 325.523 33.96 325.597 33.896C325.672 33.832 325.784 33.8 325.933 33.8H327.021C327.16 33.8 327.267 33.832 327.341 33.896C327.427 33.96 327.491 34.0453 327.533 34.152L331.485 44.504C331.507 44.568 331.517 44.6267 331.517 44.68C331.517 44.7653 331.485 44.84 331.421 44.904C331.357 44.968 331.283 45 331.197 45H330.381C330.253 45 330.157 44.968 330.093 44.904C330.04 44.84 330.003 44.7813 329.981 44.728L329.101 42.456H323.853L322.973 44.728C322.963 44.7813 322.925 44.84 322.861 44.904C322.797 44.968 322.701 45 322.573 45H321.757ZM324.317 41.08H328.637L326.477 35.4L324.317 41.08ZM336.015 45.16C335.332 45.16 334.751 45.0107 334.271 44.712C333.801 44.4027 333.444 43.976 333.199 43.432C332.953 42.888 332.831 42.264 332.831 41.56V37.048C332.831 36.9413 332.863 36.856 332.927 36.792C333.001 36.7173 333.092 36.68 333.199 36.68H333.999C334.105 36.68 334.191 36.7173 334.255 36.792C334.329 36.856 334.367 36.9413 334.367 37.048V41.48C334.367 43.0693 335.06 43.864 336.447 43.864C337.108 43.864 337.636 43.656 338.031 43.24C338.436 42.8133 338.639 42.2267 338.639 41.48V37.048C338.639 36.9413 338.671 36.856 338.735 36.792C338.809 36.7173 338.9 36.68 339.007 36.68H339.791C339.908 36.68 339.999 36.7173 340.063 36.792C340.127 36.856 340.159 36.9413 340.159 37.048V44.632C340.159 44.7387 340.127 44.8293 340.063 44.904C339.999 44.968 339.908 45 339.791 45H339.055C338.948 45 338.857 44.968 338.783 44.904C338.719 44.8293 338.687 44.7387 338.687 44.632V43.928C338.399 44.3013 338.047 44.6 337.631 44.824C337.225 45.048 336.687 45.16 336.015 45.16ZM345.784 45C345.186 45 344.701 44.888 344.328 44.664C343.954 44.4293 343.682 44.104 343.512 43.688C343.341 43.2613 343.256 42.76 343.256 42.184V37.96H342.008C341.901 37.96 341.81 37.928 341.736 37.864C341.672 37.7893 341.64 37.6987 341.64 37.592V37.048C341.64 36.9413 341.672 36.856 341.736 36.792C341.81 36.7173 341.901 36.68 342.008 36.68H343.256V34.008C343.256 33.9013 343.288 33.816 343.352 33.752C343.426 33.6773 343.517 33.64 343.624 33.64H344.376C344.482 33.64 344.568 33.6773 344.632 33.752C344.706 33.816 344.744 33.9013 344.744 34.008V36.68H346.728C346.834 36.68 346.92 36.7173 346.984 36.792C347.058 36.856 347.096 36.9413 347.096 37.048V37.592C347.096 37.6987 347.058 37.7893 346.984 37.864C346.92 37.928 346.834 37.96 346.728 37.96H344.744V42.072C344.744 42.5733 344.829 42.968 345 43.256C345.17 43.544 345.474 43.688 345.912 43.688H346.888C346.994 43.688 347.08 43.7253 347.144 43.8C347.218 43.864 347.256 43.9493 347.256 44.056V44.632C347.256 44.7387 347.218 44.8293 347.144 44.904C347.08 44.968 346.994 45 346.888 45H345.784ZM352.194 45.16C351.383 45.16 350.706 45.0053 350.162 44.696C349.618 44.3867 349.202 43.96 348.914 43.416C348.626 42.8613 348.466 42.232 348.434 41.528C348.423 41.3467 348.418 41.1173 348.418 40.84C348.418 40.552 348.423 40.3227 348.434 40.152C348.466 39.4373 348.626 38.808 348.914 38.264C349.212 37.72 349.634 37.2933 350.178 36.984C350.722 36.6747 351.394 36.52 352.194 36.52C352.994 36.52 353.666 36.6747 354.21 36.984C354.754 37.2933 355.17 37.72 355.458 38.264C355.756 38.808 355.922 39.4373 355.954 40.152C355.964 40.3227 355.97 40.552 355.97 40.84C355.97 41.1173 355.964 41.3467 355.954 41.528C355.922 42.232 355.762 42.8613 355.474 43.416C355.186 43.96 354.77 44.3867 354.226 44.696C353.682 45.0053 353.004 45.16 352.194 45.16ZM352.194 43.928C352.855 43.928 353.383 43.72 353.778 43.304C354.172 42.8773 354.386 42.2587 354.418 41.448C354.428 41.288 354.434 41.0853 354.434 40.84C354.434 40.5947 354.428 40.392 354.418 40.232C354.386 39.4213 354.172 38.808 353.778 38.392C353.383 37.9653 352.855 37.752 352.194 37.752C351.532 37.752 350.999 37.9653 350.594 38.392C350.199 38.808 349.991 39.4213 349.97 40.232C349.959 40.392 349.954 40.5947 349.954 40.84C349.954 41.0853 349.959 41.288 349.97 41.448C349.991 42.2587 350.199 42.8773 350.594 43.304C350.999 43.72 351.532 43.928 352.194 43.928ZM351.746 35.48C351.575 35.48 351.49 35.3947 351.49 35.224C351.49 35.1387 351.516 35.0693 351.57 35.016L352.77 33.576C352.866 33.4587 352.951 33.384 353.026 33.352C353.1 33.3093 353.212 33.288 353.362 33.288H354.45C354.652 33.288 354.754 33.3893 354.754 33.592C354.754 33.6667 354.727 33.7307 354.674 33.784L352.818 35.304C352.732 35.3787 352.652 35.4267 352.578 35.448C352.503 35.4693 352.407 35.48 352.29 35.48H351.746ZM358.341 45C358.234 45 358.144 44.968 358.069 44.904C358.005 44.8293 357.973 44.7387 357.973 44.632V37.048C357.973 36.9413 358.005 36.856 358.069 36.792C358.144 36.7173 358.234 36.68 358.341 36.68H359.093C359.2 36.68 359.285 36.7173 359.349 36.792C359.424 36.856 359.461 36.9413 359.461 37.048V37.752C359.738 37.3893 360.085 37.096 360.501 36.872C360.928 36.6373 361.472 36.52 362.133 36.52C362.826 36.52 363.413 36.6747 363.893 36.984C364.384 37.2827 364.752 37.704 364.997 38.248C365.242 38.7813 365.365 39.4053 365.365 40.12V44.632C365.365 44.7387 365.333 44.8293 365.269 44.904C365.205 44.968 365.12 45 365.013 45H364.213C364.106 45 364.016 44.968 363.941 44.904C363.877 44.8293 363.845 44.7387 363.845 44.632V40.2C363.845 39.4533 363.664 38.872 363.301 38.456C362.938 38.0293 362.405 37.816 361.701 37.816C361.04 37.816 360.506 38.0293 360.101 38.456C359.706 38.872 359.509 39.4533 359.509 40.2V44.632C359.509 44.7387 359.472 44.8293 359.397 44.904C359.333 44.968 359.248 45 359.141 45H358.341ZM371.084 45.16C370.274 45.16 369.596 45.0053 369.052 44.696C368.508 44.3867 368.092 43.96 367.804 43.416C367.516 42.8613 367.356 42.232 367.324 41.528C367.314 41.3467 367.308 41.1173 367.308 40.84C367.308 40.552 367.314 40.3227 367.324 40.152C367.356 39.4373 367.516 38.808 367.804 38.264C368.103 37.72 368.524 37.2933 369.068 36.984C369.612 36.6747 370.284 36.52 371.084 36.52C371.884 36.52 372.556 36.6747 373.1 36.984C373.644 37.2933 374.06 37.72 374.348 38.264C374.647 38.808 374.812 39.4373 374.844 40.152C374.855 40.3227 374.86 40.552 374.86 40.84C374.86 41.1173 374.855 41.3467 374.844 41.528C374.812 42.232 374.652 42.8613 374.364 43.416C374.076 43.96 373.66 44.3867 373.116 44.696C372.572 45.0053 371.895 45.16 371.084 45.16ZM371.084 43.928C371.746 43.928 372.274 43.72 372.668 43.304C373.063 42.8773 373.276 42.2587 373.308 41.448C373.319 41.288 373.324 41.0853 373.324 40.84C373.324 40.5947 373.319 40.392 373.308 40.232C373.276 39.4213 373.063 38.808 372.668 38.392C372.274 37.9653 371.746 37.752 371.084 37.752C370.423 37.752 369.89 37.9653 369.484 38.392C369.09 38.808 368.882 39.4213 368.86 40.232C368.85 40.392 368.844 40.5947 368.844 40.84C368.844 41.0853 368.85 41.288 368.86 41.448C368.882 42.2587 369.09 42.8773 369.484 43.304C369.89 43.72 370.423 43.928 371.084 43.928ZM377.232 45C377.125 45 377.034 44.968 376.96 44.904C376.896 44.8293 376.864 44.7387 376.864 44.632V37.048C376.864 36.9413 376.896 36.856 376.96 36.792C377.034 36.7173 377.125 36.68 377.232 36.68H377.952C378.058 36.68 378.144 36.7173 378.208 36.792C378.282 36.856 378.32 36.9413 378.32 37.048V37.608C378.565 37.2773 378.874 37.016 379.248 36.824C379.621 36.6213 380.069 36.52 380.592 36.52C381.797 36.5093 382.65 37 383.152 37.992C383.397 37.544 383.754 37.1867 384.224 36.92C384.693 36.6533 385.226 36.52 385.824 36.52C386.378 36.52 386.88 36.648 387.328 36.904C387.786 37.16 388.144 37.5493 388.4 38.072C388.666 38.584 388.8 39.2293 388.8 40.008V44.632C388.8 44.7387 388.762 44.8293 388.688 44.904C388.624 44.968 388.538 45 388.432 45H387.68C387.573 45 387.482 44.968 387.408 44.904C387.344 44.8293 387.312 44.7387 387.312 44.632V40.152C387.312 39.5547 387.226 39.0853 387.056 38.744C386.885 38.4027 386.656 38.1627 386.368 38.024C386.08 37.8853 385.765 37.816 385.424 37.816C385.146 37.816 384.864 37.8853 384.576 38.024C384.288 38.1627 384.048 38.4027 383.856 38.744C383.674 39.0853 383.584 39.5547 383.584 40.152V44.632C383.584 44.7387 383.546 44.8293 383.472 44.904C383.408 44.968 383.322 45 383.216 45H382.464C382.357 45 382.266 44.968 382.192 44.904C382.128 44.8293 382.096 44.7387 382.096 44.632V40.152C382.096 39.5547 382.005 39.0853 381.824 38.744C381.642 38.4027 381.408 38.1627 381.12 38.024C380.832 37.8853 380.528 37.816 380.208 37.816C379.93 37.816 379.648 37.8853 379.36 38.024C379.072 38.1627 378.832 38.4027 378.64 38.744C378.458 39.0853 378.368 39.5493 378.368 40.136V44.632C378.368 44.7387 378.33 44.8293 378.256 44.904C378.192 44.968 378.106 45 378 45H377.232ZM393.402 45.16C392.869 45.16 392.384 45.0533 391.946 44.84C391.509 44.6267 391.157 44.3387 390.89 43.976C390.624 43.6133 390.49 43.2027 390.49 42.744C390.49 42.008 390.789 41.4213 391.386 40.984C391.984 40.5467 392.762 40.2587 393.722 40.12L396.106 39.784V39.32C396.106 38.808 395.957 38.408 395.658 38.12C395.37 37.832 394.896 37.688 394.234 37.688C393.754 37.688 393.365 37.784 393.066 37.976C392.778 38.168 392.576 38.4133 392.458 38.712C392.394 38.872 392.282 38.952 392.122 38.952H391.402C391.285 38.952 391.194 38.92 391.13 38.856C391.077 38.7813 391.05 38.696 391.05 38.6C391.05 38.44 391.109 38.2427 391.226 38.008C391.354 37.7733 391.546 37.544 391.802 37.32C392.058 37.096 392.384 36.9093 392.778 36.76C393.184 36.6 393.674 36.52 394.25 36.52C394.89 36.52 395.429 36.6053 395.866 36.776C396.304 36.936 396.645 37.1547 396.89 37.432C397.146 37.7093 397.328 38.024 397.434 38.376C397.552 38.728 397.61 39.0853 397.61 39.448V44.632C397.61 44.7387 397.573 44.8293 397.498 44.904C397.434 44.968 397.349 45 397.242 45H396.506C396.389 45 396.298 44.968 396.234 44.904C396.17 44.8293 396.138 44.7387 396.138 44.632V43.944C396 44.136 395.813 44.328 395.578 44.52C395.344 44.7013 395.05 44.856 394.698 44.984C394.346 45.1013 393.914 45.16 393.402 45.16ZM393.738 43.96C394.176 43.96 394.576 43.8693 394.938 43.688C395.301 43.496 395.584 43.2027 395.786 42.808C396 42.4133 396.106 41.9173 396.106 41.32V40.872L394.25 41.144C393.493 41.2507 392.922 41.432 392.538 41.688C392.154 41.9333 391.962 42.248 391.962 42.632C391.962 42.9307 392.048 43.1813 392.218 43.384C392.4 43.576 392.624 43.72 392.89 43.816C393.168 43.912 393.45 43.96 393.738 43.96ZM406.872 45.16C406.286 45.16 405.779 45.0587 405.352 44.856C404.926 44.6427 404.574 44.36 404.296 44.008C404.03 43.6453 403.827 43.2347 403.688 42.776C403.56 42.3173 403.486 41.832 403.464 41.32C403.454 41.1493 403.448 40.9893 403.448 40.84C403.448 40.6907 403.454 40.5307 403.464 40.36C403.486 39.8587 403.56 39.3787 403.688 38.92C403.827 38.4613 404.03 38.0507 404.296 37.688C404.574 37.3253 404.926 37.0427 405.352 36.84C405.779 36.6267 406.286 36.52 406.872 36.52C407.502 36.52 408.024 36.632 408.44 36.856C408.856 37.08 409.198 37.3573 409.464 37.688V34.008C409.464 33.9013 409.496 33.816 409.56 33.752C409.635 33.6773 409.726 33.64 409.832 33.64H410.6C410.707 33.64 410.792 33.6773 410.856 33.752C410.931 33.816 410.968 33.9013 410.968 34.008V44.632C410.968 44.7387 410.931 44.8293 410.856 44.904C410.792 44.968 410.707 45 410.6 45H409.88C409.763 45 409.672 44.968 409.608 44.904C409.544 44.8293 409.512 44.7387 409.512 44.632V43.96C409.246 44.3013 408.899 44.5893 408.472 44.824C408.046 45.048 407.512 45.16 406.872 45.16ZM407.208 43.864C407.742 43.864 408.168 43.7413 408.488 43.496C408.808 43.2507 409.048 42.9413 409.208 42.568C409.368 42.184 409.454 41.7947 409.464 41.4C409.475 41.2293 409.48 41.0267 409.48 40.792C409.48 40.5467 409.475 40.3387 409.464 40.168C409.454 39.7947 409.363 39.4267 409.192 39.064C409.032 38.7013 408.787 38.4027 408.456 38.168C408.136 37.9333 407.72 37.816 407.208 37.816C406.664 37.816 406.232 37.9387 405.912 38.184C405.592 38.4187 405.363 38.7333 405.224 39.128C405.086 39.512 405.006 39.928 404.984 40.376C404.974 40.6853 404.974 40.9947 404.984 41.304C405.006 41.752 405.086 42.1733 405.224 42.568C405.363 42.952 405.592 43.2667 405.912 43.512C406.232 43.7467 406.664 43.864 407.208 43.864ZM416.66 45.16C415.561 45.16 414.687 44.824 414.036 44.152C413.385 43.4693 413.028 42.5413 412.964 41.368C412.953 41.2293 412.948 41.0533 412.948 40.84C412.948 40.616 412.953 40.4347 412.964 40.296C413.007 39.5387 413.183 38.8773 413.492 38.312C413.801 37.736 414.223 37.2933 414.756 36.984C415.3 36.6747 415.935 36.52 416.66 36.52C417.471 36.52 418.148 36.6907 418.692 37.032C419.247 37.3733 419.668 37.8587 419.956 38.488C420.244 39.1173 420.388 39.8533 420.388 40.696V40.968C420.388 41.0853 420.351 41.176 420.276 41.24C420.212 41.304 420.127 41.336 420.02 41.336H414.484C414.484 41.3467 414.484 41.368 414.484 41.4C414.484 41.432 414.484 41.4587 414.484 41.48C414.505 41.9173 414.601 42.328 414.772 42.712C414.943 43.0853 415.188 43.3893 415.508 43.624C415.828 43.8587 416.212 43.976 416.66 43.976C417.044 43.976 417.364 43.9173 417.62 43.8C417.876 43.6827 418.084 43.5547 418.244 43.416C418.404 43.2667 418.511 43.1547 418.564 43.08C418.66 42.9413 418.735 42.8613 418.788 42.84C418.841 42.808 418.927 42.792 419.044 42.792H419.812C419.919 42.792 420.004 42.824 420.068 42.888C420.143 42.9413 420.175 43.0213 420.164 43.128C420.153 43.288 420.068 43.4853 419.908 43.72C419.748 43.944 419.519 44.168 419.22 44.392C418.921 44.616 418.559 44.8027 418.132 44.952C417.705 45.0907 417.215 45.16 416.66 45.16ZM414.484 40.232H418.868V40.184C418.868 39.704 418.777 39.2773 418.596 38.904C418.425 38.5307 418.175 38.2373 417.844 38.024C417.513 37.8 417.119 37.688 416.66 37.688C416.201 37.688 415.807 37.8 415.476 38.024C415.156 38.2373 414.911 38.5307 414.74 38.904C414.569 39.2773 414.484 39.704 414.484 40.184V40.232ZM430.447 45.16C429.54 45.16 428.762 45.0053 428.111 44.696C427.46 44.376 426.959 43.8907 426.607 43.24C426.255 42.5787 426.058 41.752 426.015 40.76C426.004 40.2907 425.999 39.8427 425.999 39.416C425.999 38.9787 426.004 38.5253 426.015 38.056C426.058 37.0747 426.26 36.2587 426.623 35.608C426.996 34.9467 427.508 34.456 428.159 34.136C428.82 33.8053 429.583 33.64 430.447 33.64C431.322 33.64 432.084 33.8053 432.735 34.136C433.396 34.456 433.914 34.9467 434.287 35.608C434.66 36.2587 434.863 37.0747 434.895 38.056C434.916 38.5253 434.927 38.9787 434.927 39.416C434.927 39.8427 434.916 40.2907 434.895 40.76C434.863 41.752 434.666 42.5787 434.303 43.24C433.951 43.8907 433.45 44.376 432.799 44.696C432.148 45.0053 431.364 45.16 430.447 45.16ZM430.447 43.8C431.268 43.8 431.935 43.5547 432.447 43.064C432.97 42.5733 433.252 41.7787 433.295 40.68C433.316 40.2 433.327 39.7733 433.327 39.4C433.327 39.016 433.316 38.5893 433.295 38.12C433.274 37.384 433.135 36.7867 432.879 36.328C432.634 35.8693 432.303 35.5333 431.887 35.32C431.471 35.1067 430.991 35 430.447 35C429.924 35 429.455 35.1067 429.039 35.32C428.623 35.5333 428.287 35.8693 428.031 36.328C427.786 36.7867 427.647 37.384 427.615 38.12C427.604 38.5893 427.599 39.016 427.599 39.4C427.599 39.7733 427.604 40.2 427.615 40.68C427.658 41.7787 427.94 42.5733 428.463 43.064C428.986 43.5547 429.647 43.8 430.447 43.8ZM440.411 45.16C439.654 45.16 438.998 45.016 438.443 44.728C437.899 44.4293 437.478 44.008 437.179 43.464C436.881 42.9093 436.721 42.248 436.699 41.48C436.689 41.32 436.683 41.1067 436.683 40.84C436.683 40.5733 436.689 40.36 436.699 40.2C436.721 39.432 436.881 38.776 437.179 38.232C437.478 37.6773 437.899 37.256 438.443 36.968C438.998 36.6693 439.654 36.52 440.411 36.52C441.03 36.52 441.558 36.6053 441.995 36.776C442.443 36.9467 442.811 37.1653 443.099 37.432C443.387 37.6987 443.601 37.9867 443.739 38.296C443.889 38.6053 443.969 38.8987 443.979 39.176C443.99 39.2827 443.958 39.368 443.883 39.432C443.809 39.496 443.718 39.528 443.611 39.528H442.843C442.737 39.528 442.657 39.5067 442.603 39.464C442.55 39.4107 442.497 39.3253 442.443 39.208C442.251 38.6853 441.99 38.3173 441.659 38.104C441.329 37.8907 440.918 37.784 440.427 37.784C439.787 37.784 439.265 37.9813 438.859 38.376C438.465 38.7707 438.251 39.4053 438.219 40.28C438.209 40.664 438.209 41.0373 438.219 41.4C438.251 42.2853 438.465 42.9253 438.859 43.32C439.265 43.704 439.787 43.896 440.427 43.896C440.918 43.896 441.329 43.7893 441.659 43.576C441.99 43.3627 442.251 42.9947 442.443 42.472C442.497 42.3547 442.55 42.2747 442.603 42.232C442.657 42.1787 442.737 42.152 442.843 42.152H443.611C443.718 42.152 443.809 42.184 443.883 42.248C443.958 42.312 443.99 42.3973 443.979 42.504C443.969 42.728 443.921 42.9573 443.835 43.192C443.75 43.4267 443.611 43.6667 443.419 43.912C443.238 44.1467 443.009 44.36 442.731 44.552C442.454 44.7333 442.118 44.8827 441.723 45C441.339 45.1067 440.902 45.16 440.411 45.16ZM449.239 45.16C448.482 45.16 447.826 45.016 447.271 44.728C446.727 44.4293 446.306 44.008 446.007 43.464C445.709 42.9093 445.549 42.248 445.527 41.48C445.517 41.32 445.511 41.1067 445.511 40.84C445.511 40.5733 445.517 40.36 445.527 40.2C445.549 39.432 445.709 38.776 446.007 38.232C446.306 37.6773 446.727 37.256 447.271 36.968C447.826 36.6693 448.482 36.52 449.239 36.52C449.858 36.52 450.386 36.6053 450.823 36.776C451.271 36.9467 451.639 37.1653 451.927 37.432C452.215 37.6987 452.429 37.9867 452.567 38.296C452.717 38.6053 452.797 38.8987 452.807 39.176C452.818 39.2827 452.786 39.368 452.711 39.432C452.637 39.496 452.546 39.528 452.439 39.528H451.671C451.565 39.528 451.485 39.5067 451.431 39.464C451.378 39.4107 451.325 39.3253 451.271 39.208C451.079 38.6853 450.818 38.3173 450.487 38.104C450.157 37.8907 449.746 37.784 449.255 37.784C448.615 37.784 448.093 37.9813 447.687 38.376C447.293 38.7707 447.079 39.4053 447.047 40.28C447.037 40.664 447.037 41.0373 447.047 41.4C447.079 42.2853 447.293 42.9253 447.687 43.32C448.093 43.704 448.615 43.896 449.255 43.896C449.746 43.896 450.157 43.7893 450.487 43.576C450.818 43.3627 451.079 42.9947 451.271 42.472C451.325 42.3547 451.378 42.2747 451.431 42.232C451.485 42.1787 451.565 42.152 451.671 42.152H452.439C452.546 42.152 452.637 42.184 452.711 42.248C452.786 42.312 452.818 42.3973 452.807 42.504C452.797 42.728 452.749 42.9573 452.663 43.192C452.578 43.4267 452.439 43.6667 452.247 43.912C452.066 44.1467 451.837 44.36 451.559 44.552C451.282 44.7333 450.946 44.8827 450.551 45C450.167 45.1067 449.73 45.16 449.239 45.16ZM455.075 45C454.969 45 454.878 44.968 454.803 44.904C454.739 44.8293 454.707 44.7387 454.707 44.632V37.048C454.707 36.9413 454.739 36.856 454.803 36.792C454.878 36.7173 454.969 36.68 455.075 36.68H455.843C455.95 36.68 456.035 36.7173 456.099 36.792C456.163 36.856 456.195 36.9413 456.195 37.048V44.632C456.195 44.7387 456.163 44.8293 456.099 44.904C456.035 44.968 455.95 45 455.843 45H455.075ZM454.947 35.128C454.841 35.128 454.75 35.096 454.675 35.032C454.611 34.9573 454.579 34.8667 454.579 34.76V33.896C454.579 33.7893 454.611 33.704 454.675 33.64C454.75 33.5653 454.841 33.528 454.947 33.528H455.955C456.062 33.528 456.147 33.5653 456.211 33.64C456.286 33.704 456.323 33.7893 456.323 33.896V34.76C456.323 34.8667 456.286 34.9573 456.211 35.032C456.147 35.096 456.062 35.128 455.955 35.128H454.947ZM461.622 45.16C461.036 45.16 460.529 45.0587 460.102 44.856C459.676 44.6427 459.324 44.36 459.046 44.008C458.78 43.6453 458.577 43.2347 458.438 42.776C458.31 42.3173 458.236 41.832 458.214 41.32C458.204 41.1493 458.198 40.9893 458.198 40.84C458.198 40.6907 458.204 40.5307 458.214 40.36C458.236 39.8587 458.31 39.3787 458.438 38.92C458.577 38.4613 458.78 38.0507 459.046 37.688C459.324 37.3253 459.676 37.0427 460.102 36.84C460.529 36.6267 461.036 36.52 461.622 36.52C462.252 36.52 462.774 36.632 463.19 36.856C463.606 37.08 463.948 37.3573 464.214 37.688V34.008C464.214 33.9013 464.246 33.816 464.31 33.752C464.385 33.6773 464.476 33.64 464.582 33.64H465.35C465.457 33.64 465.542 33.6773 465.606 33.752C465.681 33.816 465.718 33.9013 465.718 34.008V44.632C465.718 44.7387 465.681 44.8293 465.606 44.904C465.542 44.968 465.457 45 465.35 45H464.63C464.513 45 464.422 44.968 464.358 44.904C464.294 44.8293 464.262 44.7387 464.262 44.632V43.96C463.996 44.3013 463.649 44.5893 463.222 44.824C462.796 45.048 462.262 45.16 461.622 45.16ZM461.958 43.864C462.492 43.864 462.918 43.7413 463.238 43.496C463.558 43.2507 463.798 42.9413 463.958 42.568C464.118 42.184 464.204 41.7947 464.214 41.4C464.225 41.2293 464.23 41.0267 464.23 40.792C464.23 40.5467 464.225 40.3387 464.214 40.168C464.204 39.7947 464.113 39.4267 463.942 39.064C463.782 38.7013 463.537 38.4027 463.206 38.168C462.886 37.9333 462.47 37.816 461.958 37.816C461.414 37.816 460.982 37.9387 460.662 38.184C460.342 38.4187 460.113 38.7333 459.974 39.128C459.836 39.512 459.756 39.928 459.734 40.376C459.724 40.6853 459.724 40.9947 459.734 41.304C459.756 41.752 459.836 42.1733 459.974 42.568C460.113 42.952 460.342 43.2667 460.662 43.512C460.982 43.7467 461.414 43.864 461.958 43.864ZM471.41 45.16C470.311 45.16 469.437 44.824 468.786 44.152C468.135 43.4693 467.778 42.5413 467.714 41.368C467.703 41.2293 467.698 41.0533 467.698 40.84C467.698 40.616 467.703 40.4347 467.714 40.296C467.757 39.5387 467.933 38.8773 468.242 38.312C468.551 37.736 468.973 37.2933 469.506 36.984C470.05 36.6747 470.685 36.52 471.41 36.52C472.221 36.52 472.898 36.6907 473.442 37.032C473.997 37.3733 474.418 37.8587 474.706 38.488C474.994 39.1173 475.138 39.8533 475.138 40.696V40.968C475.138 41.0853 475.101 41.176 475.026 41.24C474.962 41.304 474.877 41.336 474.77 41.336H469.234C469.234 41.3467 469.234 41.368 469.234 41.4C469.234 41.432 469.234 41.4587 469.234 41.48C469.255 41.9173 469.351 42.328 469.522 42.712C469.693 43.0853 469.938 43.3893 470.258 43.624C470.578 43.8587 470.962 43.976 471.41 43.976C471.794 43.976 472.114 43.9173 472.37 43.8C472.626 43.6827 472.834 43.5547 472.994 43.416C473.154 43.2667 473.261 43.1547 473.314 43.08C473.41 42.9413 473.485 42.8613 473.538 42.84C473.591 42.808 473.677 42.792 473.794 42.792H474.562C474.669 42.792 474.754 42.824 474.818 42.888C474.893 42.9413 474.925 43.0213 474.914 43.128C474.903 43.288 474.818 43.4853 474.658 43.72C474.498 43.944 474.269 44.168 473.97 44.392C473.671 44.616 473.309 44.8027 472.882 44.952C472.455 45.0907 471.965 45.16 471.41 45.16ZM469.234 40.232H473.618V40.184C473.618 39.704 473.527 39.2773 473.346 38.904C473.175 38.5307 472.925 38.2373 472.594 38.024C472.263 37.8 471.869 37.688 471.41 37.688C470.951 37.688 470.557 37.8 470.226 38.024C469.906 38.2373 469.661 38.5307 469.49 38.904C469.319 39.2773 469.234 39.704 469.234 40.184V40.232ZM477.419 45C477.313 45 477.222 44.968 477.147 44.904C477.083 44.8293 477.051 44.7387 477.051 44.632V37.048C477.051 36.9413 477.083 36.856 477.147 36.792C477.222 36.7173 477.313 36.68 477.419 36.68H478.171C478.278 36.68 478.363 36.7173 478.427 36.792C478.502 36.856 478.539 36.9413 478.539 37.048V37.752C478.817 37.3893 479.163 37.096 479.579 36.872C480.006 36.6373 480.55 36.52 481.211 36.52C481.905 36.52 482.491 36.6747 482.971 36.984C483.462 37.2827 483.83 37.704 484.075 38.248C484.321 38.7813 484.443 39.4053 484.443 40.12V44.632C484.443 44.7387 484.411 44.8293 484.347 44.904C484.283 44.968 484.198 45 484.091 45H483.291C483.185 45 483.094 44.968 483.019 44.904C482.955 44.8293 482.923 44.7387 482.923 44.632V40.2C482.923 39.4533 482.742 38.872 482.379 38.456C482.017 38.0293 481.483 37.816 480.779 37.816C480.118 37.816 479.585 38.0293 479.179 38.456C478.785 38.872 478.587 39.4533 478.587 40.2V44.632C478.587 44.7387 478.55 44.8293 478.475 44.904C478.411 44.968 478.326 45 478.219 45H477.419ZM489.893 45C489.296 45 488.81 44.888 488.437 44.664C488.064 44.4293 487.792 44.104 487.621 43.688C487.45 43.2613 487.365 42.76 487.365 42.184V37.96H486.117C486.01 37.96 485.92 37.928 485.845 37.864C485.781 37.7893 485.749 37.6987 485.749 37.592V37.048C485.749 36.9413 485.781 36.856 485.845 36.792C485.92 36.7173 486.01 36.68 486.117 36.68H487.365V34.008C487.365 33.9013 487.397 33.816 487.461 33.752C487.536 33.6773 487.626 33.64 487.733 33.64H488.485C488.592 33.64 488.677 33.6773 488.741 33.752C488.816 33.816 488.853 33.9013 488.853 34.008V36.68H490.837C490.944 36.68 491.029 36.7173 491.093 36.792C491.168 36.856 491.205 36.9413 491.205 37.048V37.592C491.205 37.6987 491.168 37.7893 491.093 37.864C491.029 37.928 490.944 37.96 490.837 37.96H488.853V42.072C488.853 42.5733 488.938 42.968 489.109 43.256C489.28 43.544 489.584 43.688 490.021 43.688H490.997C491.104 43.688 491.189 43.7253 491.253 43.8C491.328 43.864 491.365 43.9493 491.365 44.056V44.632C491.365 44.7387 491.328 44.8293 491.253 44.904C491.189 44.968 491.104 45 490.997 45H489.893ZM496.207 45.16C495.108 45.16 494.234 44.824 493.583 44.152C492.932 43.4693 492.575 42.5413 492.511 41.368C492.5 41.2293 492.495 41.0533 492.495 40.84C492.495 40.616 492.5 40.4347 492.511 40.296C492.554 39.5387 492.73 38.8773 493.039 38.312C493.348 37.736 493.77 37.2933 494.303 36.984C494.847 36.6747 495.482 36.52 496.207 36.52C497.018 36.52 497.695 36.6907 498.239 37.032C498.794 37.3733 499.215 37.8587 499.503 38.488C499.791 39.1173 499.935 39.8533 499.935 40.696V40.968C499.935 41.0853 499.898 41.176 499.823 41.24C499.759 41.304 499.674 41.336 499.567 41.336H494.031C494.031 41.3467 494.031 41.368 494.031 41.4C494.031 41.432 494.031 41.4587 494.031 41.48C494.052 41.9173 494.148 42.328 494.319 42.712C494.49 43.0853 494.735 43.3893 495.055 43.624C495.375 43.8587 495.759 43.976 496.207 43.976C496.591 43.976 496.911 43.9173 497.167 43.8C497.423 43.6827 497.631 43.5547 497.791 43.416C497.951 43.2667 498.058 43.1547 498.111 43.08C498.207 42.9413 498.282 42.8613 498.335 42.84C498.388 42.808 498.474 42.792 498.591 42.792H499.359C499.466 42.792 499.551 42.824 499.615 42.888C499.69 42.9413 499.722 43.0213 499.711 43.128C499.7 43.288 499.615 43.4853 499.455 43.72C499.295 43.944 499.066 44.168 498.767 44.392C498.468 44.616 498.106 44.8027 497.679 44.952C497.252 45.0907 496.762 45.16 496.207 45.16ZM494.031 40.232H498.415V40.184C498.415 39.704 498.324 39.2773 498.143 38.904C497.972 38.5307 497.722 38.2373 497.391 38.024C497.06 37.8 496.666 37.688 496.207 37.688C495.748 37.688 495.354 37.8 495.023 38.024C494.703 38.2373 494.458 38.5307 494.287 38.904C494.116 39.2773 494.031 39.704 494.031 40.184V40.232Z" fill="#F5F5F5"/>
<path d="M193 29.5H537" stroke="#F5F5F5"/>
</svg>
